<svg width="26" height="26" viewBox="0 0 26 26" fill="none" xmlns="http://www.w3.org/2000/svg">
<path d="M5.3125 19.375C6.375 18.5625 7.5625 17.9219 8.875 17.4531C10.1875 16.9844 11.5625 16.75 13 16.75C14.4375 16.75 15.8125 16.9844 17.125 17.4531C18.4375 17.9219 19.625 18.5625 20.6875 19.375C21.4167 18.5208 21.9844 17.5521 22.3906 16.4688C22.7969 15.3854 23 14.2292 23 13C23 10.2292 22.026 7.86979 20.0781 5.92188C18.1302 3.97396 15.7708 3 13 3C10.2292 3 7.86979 3.97396 5.92188 5.92188C3.97396 7.86979 3 10.2292 3 13C3 14.2292 3.20312 15.3854 3.60938 16.4688C4.01562 17.5521 4.58333 18.5208 5.3125 19.375ZM13 14.25C11.7708 14.25 10.7344 13.8281 9.89062 12.9844C9.04688 12.1406 8.625 11.1042 8.625 9.875C8.625 8.64583 9.04688 7.60938 9.89062 6.76563C10.7344 5.92188 11.7708 5.5 13 5.5C14.2292 5.5 15.2656 5.92188 16.1094 6.76563C16.9531 7.60938 17.375 8.64583 17.375 9.875C17.375 11.1042 16.9531 12.1406 16.1094 12.9844C15.2656 13.8281 14.2292 14.25 13 14.25ZM13 25.5C11.2708 25.5 9.64583 25.1719 8.125 24.5156C6.60417 23.8594 5.28125 22.9688 4.15625 21.8438C3.03125 20.7188 2.14063 19.3958 1.48438 17.875C0.828125 16.3542 0.5 14.7292 0.5 13C0.5 11.2708 0.828125 9.64583 1.48438 8.125C2.14063 6.60417 3.03125 5.28125 4.15625 4.15625C5.28125 3.03125 6.60417 2.14063 8.125 1.48438C9.64583 0.828125 11.2708 0.5 13 0.5C14.7292 0.5 16.3542 0.828125 17.875 1.48438C19.3958 2.14063 20.7188 3.03125 21.8438 4.15625C22.9688 5.28125 23.8594 6.60417 24.5156 8.125C25.1719 9.64583 25.5 11.2708 25.5 13C25.5 14.7292 25.1719 16.3542 24.5156 17.875C23.8594 19.3958 22.9688 20.7188 21.8438 21.8438C20.7188 22.9688 19.3958 23.8594 17.875 24.5156C16.3542 25.1719 14.7292 25.5 13 25.5ZM13 23C14.1042 23 15.1458 22.8385 16.125 22.5156C17.1042 22.1927 18 21.7292 18.8125 21.125C18 20.5208 17.1042 20.0573 16.125 19.7344C15.1458 19.4115 14.1042 19.25 13 19.25C11.8958 19.25 10.8542 19.4115 9.875 19.7344C8.89583 20.0573 8 20.5208 7.1875 21.125C8 21.7292 8.89583 22.1927 9.875 22.5156C10.8542 22.8385 11.8958 23 13 23ZM13 11.75C13.5417 11.75 13.9896 11.5729 14.3438 11.2188C14.6979 10.8646 14.875 10.4167 14.875 9.875C14.875 9.33333 14.6979 8.88542 14.3438 8.53125C13.9896 8.17708 13.5417 8 13 8C12.4583 8 12.0104 8.17708 11.6562 8.53125C11.3021 8.88542 11.125 9.33333 11.125 9.875C11.125 10.4167 11.3021 10.8646 11.6562 11.2188C12.0104 11.5729 12.4583 11.75 13 11.75Z" fill="#F2F6F9"/>
</svg>
