<svg xmlns="http://www.w3.org/2000/svg" width="41" height="28" viewBox="0 0 41 28" fill="none">
  <rect x="1.19553" y="0.695531" width="38.8589" height="26.6089" rx="7.30447" fill="#1F72CD" stroke="#B9C6CE" stroke-width="1.39106"/>
  <path fill-rule="evenodd" clip-rule="evenodd" d="M7.71509 9.91797L3.94922 18.3725H8.4575L9.01639 17.0245H10.2939L10.8528 18.3725H15.8151V17.3437L16.2573 18.3725H18.8242L19.2664 17.3219V18.3725H29.5868L30.8417 17.0595L32.0167 18.3725L37.3174 18.3834L33.5397 14.1688L37.3174 9.91797H32.0989L30.8773 11.2067L29.7393 9.91797H18.5121L17.548 12.1002L16.5613 9.91797H12.0625V10.9118L11.562 9.91797H7.71509ZM8.58718 11.1191H10.7847L13.2826 16.8522V11.1191H15.69L17.6193 15.2297L19.3974 11.1191H21.7927V17.1858H20.3352L20.3233 12.432L18.1985 17.1858H16.8947L14.7579 12.432V17.1858H11.7595L11.1911 15.8258H8.12005L7.55278 17.1846H5.94629L8.58718 11.1191ZM29.0524 11.1191H23.126V17.1822H28.9607L30.8412 15.1728L32.6539 17.1822H34.5487L31.7946 14.1683L34.5487 11.1191H32.7361L30.865 13.1055L29.0524 11.1191ZM9.65632 12.1445L8.64453 14.5674H10.6669L9.65632 12.1445ZM24.5889 13.4835V12.3761V12.375H28.2868L29.9003 14.1461L28.2153 15.9269H24.5889V14.7179H27.822V13.4835H24.5889Z" fill="white"/>
</svg>
