<svg width="276" height="266" viewBox="0 0 276 266" fill="none" xmlns="http://www.w3.org/2000/svg">
<path d="M23.174 266C20.0626 263.292 19.2594 259.506 18.4654 255.785C17.0528 249.189 15.908 242.539 13.8952 236.081C13.6921 235.436 13.609 234.746 13.5259 234.073C13.3505 232.572 13.646 232.037 15.1047 231.651C16.2773 231.337 17.5052 231.19 18.7054 230.978C19.8687 230.775 21.0413 230.582 22.2046 230.37C23.6264 230.103 24.1065 230.333 24.2635 231.724C24.6328 234.884 24.8913 238.062 25.1867 241.231C25.3437 242.962 25.4453 244.703 25.6576 246.435C25.7222 246.942 26.0638 247.421 26.3777 248.139C26.5716 245.799 26.7009 243.791 26.8948 241.792C27.2733 238.016 27.6888 234.248 28.0858 230.481C28.1873 229.514 28.6767 228.988 29.683 228.869C31.9635 228.602 34.2347 228.288 36.5059 227.984C37.3276 227.874 37.9001 228.187 38.0662 228.961C38.4817 230.803 38.9803 232.645 39.1649 234.515C39.5158 237.988 39.6635 241.479 39.9312 244.961C39.9682 245.486 40.1528 246.002 40.2636 246.527C40.4021 246.527 40.5314 246.527 40.6698 246.527C40.8176 245.974 41.0392 245.431 41.0945 244.86C41.5839 239.959 42.064 235.05 42.4887 230.14C42.5441 229.495 42.3133 228.804 42.1286 228.169C41.9255 227.45 42.0732 227.146 42.8764 227.045C45.4523 226.722 48.0282 226.336 50.5949 225.949C52.0444 225.728 52.5245 226.032 52.3491 227.469C52.0629 229.762 51.6474 232.037 51.2043 234.303C49.7732 241.673 48.3145 249.033 46.8372 256.393C46.5972 257.618 46.2741 258.834 45.9509 260.04C45.5539 261.523 44.5845 262.472 43.0519 262.795C41.8147 263.043 40.5775 263.329 39.3311 263.467C37.7985 263.642 37.0599 263.016 36.8106 261.514C36.0905 257.295 35.3888 253.076 34.6317 248.867C34.5578 248.452 34.1793 248.093 33.9393 247.706C33.6531 248.065 33.1914 248.397 33.1176 248.793C32.7483 250.921 32.5267 253.076 32.1481 255.195C31.7142 257.618 31.1879 260.031 30.6709 262.435C30.2739 264.259 29.6276 265.466 27.2733 265.355C26.7471 265.328 26.2208 265.42 25.6853 265.576C26.23 265.715 26.7655 265.853 27.3102 266H23.1648H23.174Z" fill="black"/>
<path d="M276 204.44C274.403 205.877 272.852 207.378 271.181 208.742C269.851 209.829 269.768 209.911 270.341 211.477C270.904 213.007 271.375 214.572 271.91 216.111C272.316 217.29 271.735 218.091 270.895 218.782C270.073 219.464 269.177 219.574 268.263 218.92C266.527 217.677 264.792 216.433 262.964 215.116C261.763 216.009 260.489 216.958 259.206 217.898C258.717 218.257 258.2 218.589 257.692 218.93C256.815 219.519 255.956 219.63 255.07 218.893C254.156 218.147 253.703 217.281 254.082 216.102C254.59 214.508 255.014 212.896 255.605 211.33C256.021 210.243 255.744 209.552 254.821 208.917C253.593 208.069 252.439 207.13 251.257 206.227C250.241 205.453 249.65 204.504 250.056 203.169C250.453 201.87 251.524 201.418 252.697 201.317C254.137 201.188 255.605 201.225 257.055 201.299C258.209 201.363 258.837 200.958 259.104 199.825C259.391 198.609 259.76 197.411 260.185 196.232C260.425 195.569 260.729 194.869 261.182 194.344C262.281 193.064 263.97 193.211 264.838 194.657C265.281 195.394 265.549 196.251 265.835 197.071C266.167 198.038 266.444 199.023 266.731 200.009C266.998 200.939 267.562 201.391 268.586 201.29C269.463 201.207 270.35 201.271 271.227 201.207C273.129 201.068 274.791 201.511 276.009 203.077V204.449L276 204.44Z" fill="black"/>
<path d="M109.157 199.585C109.268 201.068 109.434 202.561 109.481 204.044C109.573 206.78 109.638 209.506 109.591 212.242C109.591 212.675 108.973 213.384 108.539 213.476C106.194 213.992 103.812 214.397 101.43 214.748C100.368 214.904 100.054 214.195 100.036 213.255C99.9802 210.179 99.9156 207.102 99.8325 204.025C99.6663 197.531 99.4724 191.037 99.3155 184.543C99.2785 183.097 99.3616 181.66 99.3432 180.214C99.3247 179.173 99.8971 178.592 100.82 178.51C103.221 178.307 105.631 178.206 108.04 178.104C108.844 178.067 109.231 178.565 109.462 179.32C110.949 184.138 112.463 188.955 114.005 193.755C114.198 194.362 114.549 194.934 114.826 195.523C114.974 195.495 115.122 195.468 115.269 195.44C115.306 194.878 115.426 194.316 115.371 193.764C115.029 189.794 114.66 185.833 114.3 181.863C114.198 180.766 114.162 179.661 113.986 178.574C113.848 177.727 114.115 177.367 114.965 177.33C117.374 177.22 119.784 177.073 122.194 176.953C123.182 176.907 123.542 177.552 123.643 178.381C123.883 180.343 124.207 182.295 124.29 184.257C124.456 188.126 124.502 192.004 124.576 195.873C124.668 200.811 124.696 205.748 124.816 210.685C124.844 211.864 124.419 212.61 123.283 212.868C121.344 213.301 119.415 213.78 117.448 214.057C116.147 214.241 115.454 213.237 115.011 212.168C114.041 209.819 113.137 207.443 112.177 205.085C111.549 203.537 110.912 201.999 110.238 200.47C110.081 200.11 109.794 199.797 109.564 199.466L109.13 199.576L109.157 199.585Z" fill="black"/>
<path d="M222.34 246.914C222.285 247.375 222.165 247.844 222.183 248.305C222.303 251.907 222.442 255.508 222.608 259.101C222.654 260.16 222.137 260.694 221.149 260.74C219.007 260.851 216.865 260.934 214.723 260.934C213.532 260.934 213.108 260.409 213.043 259.082C212.96 257.526 212.932 255.969 212.895 254.412C212.692 245.228 212.48 236.044 212.323 226.851C212.277 224.447 212.489 224.309 214.871 224.502C216.699 224.65 218.527 224.862 220.364 225C221.611 225.092 222.239 225.737 222.571 226.916C223.864 231.512 225.193 236.1 226.569 240.678C226.883 241.71 227.427 242.677 227.87 243.681C228.037 243.635 228.194 243.579 228.36 243.533C228.286 242.364 228.231 241.194 228.138 240.024C227.87 236.735 227.575 233.447 227.298 230.168C227.187 228.924 227.132 227.671 226.966 226.428C226.873 225.728 227.058 225.396 227.787 225.46C230.225 225.691 232.671 225.903 235.1 226.17C236.208 226.289 236.475 227.165 236.568 228.067C236.9 231.162 237.389 234.248 237.454 237.352C237.62 244.943 237.602 252.542 237.629 260.132C237.629 262.076 237.435 262.242 235.45 262.352C234.038 262.435 232.625 262.5 231.203 262.518C229.292 262.546 228.637 262.085 227.954 260.271C226.486 256.365 225.055 252.441 223.596 248.535C223.383 247.955 223.07 247.411 222.811 246.85C222.663 246.868 222.506 246.896 222.359 246.914H222.34Z" fill="black"/>
<path d="M237.011 200.93C237.38 198.075 236.854 195.21 236.715 192.364C236.577 189.462 236.244 186.57 235.977 183.475C237.639 183.576 239.264 183.65 240.879 183.788C241.867 183.871 242.855 184.046 243.834 184.184C244.914 184.34 245.477 184.902 245.643 186.035C246.567 192.447 246.557 198.895 246.53 205.352C246.511 209.681 246.687 214.011 246.751 218.34C246.77 219.869 246.391 220.293 244.822 220.403C243.335 220.514 241.839 220.532 240.344 220.569C238.728 220.606 237.666 219.841 237.122 218.34C235.617 214.204 234.102 210.077 232.57 205.951C232.404 205.499 232.127 205.094 231.905 204.67C231.748 204.707 231.591 204.744 231.444 204.781C231.416 205.389 231.333 205.997 231.36 206.605C231.49 209.902 231.674 213.2 231.794 216.498C231.85 218.11 231.48 218.57 229.837 218.635C227.815 218.708 225.775 218.635 223.753 218.579C222.746 218.552 222.248 217.972 222.22 216.958C222.082 211.874 221.906 206.789 221.786 201.704C221.657 196.159 221.583 190.613 221.491 185.077C221.491 184.58 221.491 184.092 221.528 183.594C221.611 182.517 222.091 182.047 223.153 182.148C225.433 182.369 227.714 182.645 229.994 182.894C231.083 183.014 231.379 183.834 231.628 184.69C233.059 189.609 234.49 194.519 235.931 199.429C236.087 199.954 236.318 200.46 236.521 200.976C236.697 200.958 236.863 200.939 237.038 200.921L237.011 200.93Z" fill="black"/>
<path d="M34.0039 200.341C34.0039 195.744 34.0316 191.157 33.9854 186.56C33.9762 185.335 34.484 184.515 35.6381 184.322C39.0264 183.751 42.4148 183.005 45.8216 182.839C49.8101 182.645 53.1893 184.414 55.7836 187.435C61.591 194.197 62.5235 203.215 57.6025 210.86C55.4328 214.222 52.1275 216.304 48.5822 218.045C44.6953 219.961 40.4667 220.366 36.2474 220.855C35.3796 220.956 34.9456 220.551 34.8348 219.749C34.5578 217.723 34.1147 215.705 34.0593 213.67C33.9393 209.23 34.0224 204.79 34.0224 200.35C34.0224 200.35 34.0039 200.35 33.9947 200.35L34.0039 200.341ZM43.2642 202.045C43.2642 202.045 43.1904 202.045 43.1534 202.045C43.1534 204.698 43.135 207.351 43.1719 210.013C43.1719 210.381 43.4396 210.759 43.5874 211.127C43.9567 210.98 44.4183 210.934 44.6676 210.676C45.8678 209.405 47.0404 208.097 48.1667 206.761C50.0317 204.56 50.7426 201.98 50.558 199.143C50.3641 196.048 48.2129 193.202 45.3877 192.225C43.9936 191.746 43.3381 192.032 43.2919 193.404C43.1996 196.278 43.2642 199.162 43.2642 202.045Z" fill="black"/>
<path d="M188.115 198.296C188.798 193.091 188.733 188.209 191.503 184.018C193.405 181.144 195.953 179.062 199.517 178.675C200.653 178.556 201.881 178.786 202.998 179.117C208.168 180.637 211.427 184.138 212.84 189.195C213.772 192.539 214.76 195.993 214.843 199.42C214.972 204.974 213.892 210.344 208.851 213.965C206.137 215.908 202.97 216.525 199.766 216.792C198.742 216.885 197.477 216.332 196.618 215.678C194.947 214.416 193.442 212.933 191.965 211.45C190.506 209.985 190.026 208.005 189.574 206.098C188.937 203.381 188.54 200.599 188.115 198.277V198.296ZM198.751 196.463C198.751 199.263 198.557 202.073 199.563 204.79C200.33 206.862 202.102 207.314 203.607 205.683C203.958 205.306 204.244 204.818 204.41 204.32C205.564 200.958 206.045 197.531 204.724 194.123C204.216 192.806 203.478 191.525 202.61 190.411C202.213 189.904 201.105 189.462 200.56 189.655C199.868 189.904 199.351 190.779 198.899 191.479C198.677 191.82 198.769 192.364 198.76 192.815C198.742 194.031 198.76 195.247 198.76 196.463H198.751Z" fill="black"/>
<path d="M69.4941 248.176C69.3925 248.563 69.1802 248.959 69.1986 249.346C69.3279 252.303 69.4756 255.25 69.6603 258.198C69.7157 259.11 69.3833 259.653 68.4785 259.847C66.4935 260.261 64.5269 260.722 62.5327 261.09C61.4802 261.284 60.8247 260.759 60.7231 259.69C60.6031 258.364 60.5292 257.037 60.5107 255.711C60.4092 249.899 60.3538 244.095 60.2245 238.283C60.1507 235.215 59.8922 232.148 59.8183 229.071C59.7537 226.243 60.5846 225.285 63.3544 224.613C66.909 223.747 70.4912 223.305 74.1566 223.839C78.8744 224.539 82.7244 227.634 83.6846 231.918C84.4786 235.473 83.6662 238.78 81.358 241.654C80.5455 242.658 79.6315 243.589 78.7175 244.51C78.2097 245.026 78.1266 245.459 78.5144 246.103C80.5086 249.475 82.4659 252.865 84.4325 256.245C85.1064 257.406 84.9033 257.977 83.62 258.18C81.3211 258.539 78.9945 258.806 76.6863 259.11C75.6707 259.239 74.9875 258.815 74.572 257.913C73.3256 255.186 72.0792 252.459 70.8236 249.733C70.5651 249.171 70.2235 248.655 69.9188 248.121C69.7803 248.13 69.651 248.148 69.5126 248.158L69.4941 248.176ZM69.0694 239.84C71.5068 239.692 74.1196 235.768 73.2148 233.64C72.6055 232.194 71.3498 231.374 69.928 230.812C69.2817 230.554 69.0786 230.987 69.0786 231.494C69.0602 234.248 69.0786 237.012 69.0786 239.84H69.0694Z" fill="black"/>
<path d="M77.6188 191.092C77.785 194.574 77.905 198.065 78.1451 201.547C78.2005 202.404 78.2835 203.546 79.4099 203.74C80.5732 203.942 81.2195 202.975 81.6627 202.119C82.032 201.4 82.2628 200.534 82.2628 199.733C82.2536 193.81 82.1705 187.887 82.0966 181.964C82.0966 181.697 82.0597 181.43 82.0228 181.172C81.7458 179.2 81.7458 179.219 83.8046 179.154C85.7158 179.099 87.6362 179.044 89.5473 178.906C90.5814 178.832 91.0615 179.21 91.08 180.223C91.0984 181.512 91.0523 182.802 91.1538 184.092C91.3662 186.855 91.5693 189.619 91.9201 192.364C92.391 196.048 91.7355 199.641 91.0984 203.215C90.683 205.545 90.0736 207.876 89.2704 210.105C88.8549 211.275 87.9224 212.306 87.073 213.264C84.5802 216.074 81.4411 216.903 77.8127 215.945C77.4064 215.834 77.0094 215.687 76.6032 215.577C72.2454 214.462 69.9927 211.56 69.4756 207.24C69.1248 204.302 68.737 201.363 68.617 198.416C68.4139 193.331 68.3862 188.237 68.3123 183.152C68.2846 181.006 69.0786 180.186 71.2298 180.048C72.6424 179.956 74.0642 179.891 75.4768 179.845C77.1479 179.799 77.6742 180.278 77.7111 181.964C77.7481 183.788 77.7204 185.612 77.7204 187.435C77.7204 188.651 77.7204 189.867 77.7204 191.083C77.6927 191.083 77.6557 191.083 77.628 191.083L77.6188 191.092Z" fill="black"/>
<path d="M154.887 198.185C154.693 200.488 154.637 202.809 154.259 205.085C153.806 207.756 152.163 209.736 149.744 210.934C145.959 212.804 142.099 213.154 138.139 211.302C134.815 209.755 133.495 206.798 132.525 203.638C132.1 202.248 131.999 200.728 131.916 199.263C131.602 194.049 131.648 188.854 133.227 183.806C133.661 182.406 134.261 181.006 135.064 179.79C136.698 177.349 139.025 175.93 142.09 175.958C142.515 175.958 142.93 175.93 143.355 175.958C145.294 176.059 147.362 175.728 149.015 176.99C151.461 178.86 153.539 181.08 154.702 184.009C155.044 184.865 154.813 185.51 154.083 185.971C152.191 187.178 150.15 188.053 147.879 188.136C147.408 188.154 146.827 187.684 146.457 187.279C146.153 186.938 146.18 186.302 145.885 185.934C145.423 185.354 144.842 184.506 144.251 184.451C143.327 184.377 142.496 184.985 142.136 186.035C141.038 189.213 140.391 192.483 140.225 195.827C140.151 197.375 140.077 198.941 140.262 200.46C140.447 202.026 141.398 203.15 143.004 203.648C143.946 203.933 144.786 203.638 145.239 202.911C145.774 202.054 146.051 201.022 146.337 200.046C146.374 199.917 145.839 199.539 145.515 199.42C145.091 199.263 144.62 199.217 144.158 199.208C143.355 199.189 143.097 198.766 143.097 198.038C143.097 196.03 143.106 194.012 143.05 192.004C143.032 191.203 143.383 191.009 144.084 191.065C146.947 191.286 149.818 191.47 152.671 191.719C154.12 191.839 154.702 192.52 154.711 193.957C154.72 195.367 154.711 196.767 154.711 198.176C154.757 198.176 154.813 198.176 154.859 198.185H154.887Z" fill="black"/>
<path d="M255.725 243.515C257.286 243.865 258.541 244.141 259.797 244.427C261.699 244.86 263.591 245.293 265.493 245.735C266.638 246.002 267.349 246.711 267.321 247.89C267.238 251.639 267.257 255.407 266.897 259.138C266.592 262.233 263.702 264.692 260.286 264.987C257.156 265.254 254.119 264.766 251.312 263.172C247.619 261.081 246.096 257.59 245.237 253.795C244.018 248.425 244.24 243.008 245.339 237.647C245.717 235.805 246.234 233.953 247 232.249C248.422 229.099 251.183 227.92 254.497 228.049C258.92 228.224 262.465 230.039 264.746 233.935C265.567 235.344 266.417 236.735 267.201 238.163C267.7 239.066 267.469 239.876 266.454 240.162C264.699 240.65 262.927 241.111 261.136 241.369C260.009 241.534 259.178 240.89 258.901 239.683C258.772 239.14 258.615 238.522 258.264 238.117C257.812 237.61 257.064 236.883 256.602 236.984C255.91 237.131 254.968 237.813 254.811 238.439C254.063 241.369 253.528 244.353 252.946 247.319C252.522 249.456 252.208 251.612 253.186 253.684C253.528 254.403 253.999 255.186 254.636 255.628C256.732 257.093 257.904 256.319 258.901 254.163C259.4 253.095 259.012 252.459 257.858 252.109C255.624 251.428 255.651 251.428 255.707 249.125C255.744 247.356 255.707 245.578 255.707 243.515H255.725Z" fill="black"/>
<path d="M90.7753 247.043C90.9507 240.853 91.1631 234.672 91.2923 228.482C91.32 226.934 91.1261 225.378 90.9599 223.83C90.7845 222.264 91.3108 221.444 92.8896 221.38C98.0968 221.177 103.304 221.048 108.511 220.873C109.333 220.845 109.785 221.223 109.785 221.978C109.785 224.18 109.748 226.382 109.656 228.583C109.61 229.642 108.816 229.965 107.874 229.928C106.572 229.882 105.28 229.725 103.978 229.707C102.593 229.689 102.445 229.882 102.464 231.208C102.464 232.047 102.464 232.876 102.491 233.714C102.51 234.681 103.018 235.179 104.006 235.142C105.003 235.105 106 235.059 106.988 234.994C107.911 234.939 108.465 235.317 108.53 236.256C108.677 238.412 108.862 240.567 108.927 242.732C108.936 243.082 108.456 243.672 108.105 243.754C106.6 244.104 105.058 244.436 103.516 244.519C102.39 244.574 101.919 244.841 101.753 246.03C101.384 248.692 101.697 248.231 103.766 248.176C105.141 248.13 106.526 248.084 107.902 248.01C108.77 247.964 109.416 248.333 109.425 249.18C109.462 251.372 109.453 253.565 109.296 255.748C109.231 256.66 108.299 256.982 107.468 257.028C102.842 257.305 98.226 257.608 93.5912 257.747C91.3292 257.811 90.9599 257.314 90.9415 255.039C90.9138 252.376 90.9415 249.723 90.9415 247.061C90.8861 247.061 90.8214 247.061 90.7661 247.061L90.7753 247.043Z" fill="black"/>
<path d="M180.95 182.415C180.95 183.327 180.969 184.239 180.95 185.151C180.904 186.8 180.249 187.297 178.596 187.021C177.35 186.809 176.103 186.634 174.857 186.45C174.109 186.339 173.703 186.588 173.749 187.426C173.804 188.449 173.795 189.471 173.795 190.494C173.795 191.221 174.174 191.654 174.875 191.728C175.9 191.839 176.934 191.885 177.959 191.958C179.39 192.06 179.759 192.4 179.87 193.819C180.009 195.671 180.082 197.531 180.267 199.383C180.369 200.405 179.944 200.921 178.984 200.986C177.47 201.087 175.937 201.179 174.423 201.115C173.601 201.078 173.176 201.253 173.084 202.072C173.038 202.487 172.955 202.892 172.899 203.307C172.761 204.237 173.232 204.643 174.118 204.689C175.614 204.771 177.1 204.854 178.596 204.937C180.11 205.02 180.747 205.462 180.812 206.964C180.895 208.889 180.793 210.833 180.673 212.758C180.618 213.587 179.99 214.001 179.141 213.974C174.284 213.826 169.419 213.707 164.562 213.495C162.753 213.412 162.328 212.859 162.31 211.035C162.254 205.075 162.18 199.116 162.18 193.156C162.18 188.375 162.263 183.603 162.31 178.823C162.319 177.552 162.725 177.054 164.036 177.109C167.895 177.257 171.755 177.478 175.614 177.69C176.916 177.763 178.208 177.92 179.501 178.012C180.507 178.077 181.061 178.491 180.996 179.578C180.95 180.527 180.987 181.476 180.987 182.424C180.978 182.424 180.96 182.424 180.95 182.424V182.415Z" fill="black"/>
<path d="M127.632 219.888C130.9 219.888 133.375 221.085 135.406 223.24C136.274 224.162 136.532 225.175 135.997 226.372C135.286 227.966 134.639 229.587 133.938 231.19C133.504 232.185 133.079 232.305 132.174 231.678C131.519 231.218 130.919 230.683 130.272 230.214C129.321 229.523 128.38 229.55 127.429 230.278C126.487 231.006 126.33 231.604 127.18 232.443C128.472 233.732 129.829 234.976 131.233 236.137C133.707 238.191 135.295 240.77 136.043 243.837C137.243 248.747 134.159 254.007 129.091 255.877C124.788 257.461 120.754 257.13 117.107 254.182C115.463 252.846 115.316 252.146 116.202 250.239C116.811 248.931 117.384 247.596 118.113 246.361C118.935 244.98 119.498 244.961 120.717 246.011C121.206 246.435 121.695 246.868 122.222 247.236C122.997 247.78 123.8 248.24 124.696 247.421C125.647 246.564 125.998 245.33 125.425 244.353C124.89 243.441 124.225 242.594 123.606 241.728C122.065 239.6 120.384 237.564 118.999 235.344C116.904 231.964 116.885 228.39 118.944 224.981C120.929 221.693 123.93 219.924 127.613 219.878L127.632 219.888Z" fill="black"/>
<path d="M157.841 241.949C157.841 245.21 157.841 248.48 157.841 251.741C157.841 252.155 157.85 252.579 157.832 252.994C157.703 255.729 157.047 256.374 154.268 256.411C153.16 256.429 152.034 256.439 150.944 256.291C148.812 255.997 148.138 255.167 148.138 253.021C148.128 246.647 148.119 240.263 148.101 233.889C148.101 232.866 148.045 231.835 148.082 230.812C148.128 229.698 147.63 229.219 146.522 229.21C145.488 229.191 144.454 229.09 143.429 229.035C142.58 228.988 142.081 228.684 142.109 227.717C142.164 225.783 142.109 223.848 142.155 221.905C142.192 220.256 142.469 219.934 144.103 219.952C149.919 220.007 155.745 220.118 161.562 220.191C162.374 220.201 162.725 220.578 162.753 221.38C162.808 222.937 162.928 224.484 162.974 226.041C163.03 227.745 162.291 228.62 160.592 228.749C156.835 229.025 157.499 228.758 157.536 232.378C157.555 233.972 157.656 235.565 157.684 237.159C157.712 238.753 157.684 240.346 157.684 241.94H157.823L157.841 241.949Z" fill="black"/>
<path d="M170.896 238.2C170.896 232.424 170.924 226.658 170.868 220.882C170.859 219.786 171.238 219.27 172.281 219.372C174.755 219.62 177.23 219.869 179.685 220.265C180.876 220.449 180.969 221.518 180.941 222.513C180.849 225.626 180.756 228.74 180.673 231.853C180.544 236.56 180.415 241.267 180.286 245.984C180.23 247.872 180.424 248.047 182.271 248.268C183.674 248.434 185.068 248.673 186.462 248.941C187.265 249.097 187.69 249.595 187.635 250.488C187.515 252.192 187.496 253.906 187.367 255.6C187.247 257.185 186.351 257.903 184.523 257.839C182.04 257.737 179.556 257.553 177.063 257.434C175.494 257.36 173.924 257.351 172.355 257.258C170.785 257.166 170.637 257.028 170.628 255.518C170.61 249.742 170.628 243.976 170.628 238.2C170.721 238.2 170.813 238.2 170.896 238.2Z" fill="black"/>
<path d="M5.00423 200.691C9.19584 200.691 8.63265 201.087 9.83289 197.2C10.1191 196.26 10.4053 195.311 10.7931 194.409C11.1809 193.497 11.8548 192.769 12.9443 192.778C14.0153 192.778 14.7631 193.46 15.1324 194.381C15.7141 195.855 16.1572 197.393 16.6466 198.904C17.2559 200.774 17.2559 200.764 19.204 200.7C20.4319 200.663 21.6599 200.635 22.8786 200.635C24.2173 200.635 25.3991 200.912 25.9253 202.358C26.3962 203.648 26.11 204.541 24.6882 205.702C23.5618 206.614 22.4077 207.498 21.1982 208.299C20.1642 208.99 19.9426 209.755 20.395 210.906C20.9767 212.389 21.4198 213.928 21.8722 215.457C22.26 216.792 21.9276 217.649 20.8289 218.432C19.8318 219.151 18.9455 218.801 18.0961 218.174C16.7389 217.179 15.3725 216.203 14.0522 215.171C13.3874 214.655 12.8797 214.526 12.1595 215.134C10.8115 216.258 9.38049 217.281 7.9679 218.322C7.08157 218.976 6.13061 219.261 5.10579 218.579C4.1456 217.935 3.73013 216.967 4.0902 215.687C4.59799 213.9 5.15195 212.122 5.80747 210.381C6.09368 209.617 6.07521 209.156 5.37353 208.659C4.0348 207.71 2.70531 206.734 1.47737 205.647C0.877247 205.121 0.332523 204.375 0.101707 203.629C-0.295296 202.321 0.812619 200.995 2.27137 200.838C3.1854 200.746 4.10866 200.737 5.02269 200.691H5.00423Z" fill="black"/>
<path d="M194.578 255.278C194.578 250.995 194.661 246.702 194.55 242.419C194.439 238.292 194.051 234.165 193.95 230.039C193.894 227.92 194.181 225.801 194.356 223.683C194.439 222.66 195.104 222.19 196.092 222.301C198.603 222.568 201.105 222.881 203.616 223.185C204.558 223.296 204.918 223.885 204.881 224.77C204.798 226.593 204.641 228.408 204.641 230.232C204.65 234.027 204.844 237.822 204.789 241.608C204.724 245.707 204.484 249.797 204.281 253.896C204.216 255.186 204.069 256.466 203.94 257.747C203.838 258.732 203.367 259.276 202.278 259.156C200.339 258.944 198.381 258.843 196.461 258.539C194.522 258.226 194.338 257.894 194.356 255.969C194.356 255.739 194.356 255.518 194.356 255.287C194.43 255.287 194.504 255.287 194.578 255.287V255.278Z" fill="black"/>
<path d="M151.729 141.571C151.387 141.599 151.027 141.618 150.833 141.636C150.76 137.454 150.686 133.336 150.621 129.219C150.603 127.865 150.621 126.511 150.621 125.074C149.282 125.203 149.042 124.355 149.015 123.305C149.005 122.845 148.904 122.384 148.95 121.933C149.052 120.892 148.793 120.09 147.787 119.565C147.537 119.436 147.297 118.791 147.408 118.58C148.276 116.949 148.11 115.254 147.833 113.569C147.371 110.685 147.999 107.903 148.507 105.103C148.747 103.786 148.784 102.441 148.968 101.105C149.042 100.571 149.245 100.055 149.449 99.3552C148.839 98.2775 149.042 97.5498 150.492 96.7852C150.713 92.465 150.935 88.0343 151.157 83.6036C151.314 80.4809 151.452 77.349 150.575 74.2908C150.473 73.9315 150.418 73.4894 150.187 73.2315C148.488 71.3984 148.498 69.0771 148.239 66.8111C148.128 65.8346 147.99 64.849 147.768 63.891C147.63 63.2923 147.297 62.887 146.513 63.191C146.236 63.3015 145.756 63.1265 145.469 62.933C145.211 62.758 145.091 62.3711 144.915 62.0764C144.777 62.1316 144.638 62.1777 144.5 62.233C144.251 62.8685 144.001 63.4949 143.641 64.4345C140.022 62.7212 136.449 61.0447 132.894 59.3221C132.202 58.9813 131.667 58.9076 131.057 59.4879C130.125 60.3538 129.063 60.3446 127.761 60.363C126.007 60.3815 124.253 61.3579 122.517 61.9474C122.286 62.0303 122.102 62.2422 121.649 62.2974C121.76 61.9658 121.834 61.6158 121.982 61.3026C122.148 60.9526 122.388 60.6302 122.415 60.1143C121.945 60.3538 121.474 60.6025 120.957 60.8697C120.707 60.5196 120.55 60.1235 120.264 59.9485C119.553 59.5156 119.941 59.0918 120.126 58.5944C120.283 58.1799 120.329 57.7101 120.421 57.268C119.913 57.4154 119.396 57.5443 118.898 57.7101C118.778 57.747 118.676 57.8575 118.565 57.9404C118.492 57.8667 118.409 57.8022 118.335 57.7285C118.713 57.3232 119.073 56.8903 119.47 56.5126C119.877 56.135 120.32 55.831 119.895 55.177C119.803 55.0388 119.849 54.7348 119.95 54.5782C121.308 52.3767 122.859 50.4515 125.388 49.3829C127.152 48.6368 128.814 47.5406 130.365 46.3892C131.436 45.597 132.534 45.1641 133.827 45.0996C136.569 44.9522 139.32 44.8325 142.062 44.6851C143.974 44.5838 145.442 43.9297 146.633 42.2072C148.239 39.8951 149.615 37.5185 150.612 34.9025C151.11 33.6129 150.621 32.7931 149.245 32.4983C148.581 32.3509 147.805 32.268 147.316 31.8719C146.494 31.1995 145.986 31.4942 145.395 32.093C144.251 33.2536 142.912 33.8247 141.25 33.4655C140.465 33.2997 139.976 32.8944 139.736 32.1022C139.505 31.3469 139.487 30.7389 140.151 30.1494C140.705 29.6519 141.121 28.9979 141.592 28.4084C141.545 28.3163 141.499 28.2242 141.453 28.1413C140.419 28.5097 139.385 28.8782 138.36 29.2558C137.723 29.4861 137.095 29.8178 136.44 29.9283C136.043 29.9928 135.36 29.8546 135.203 29.5783C134.575 28.5189 133.753 27.6899 132.876 26.8516C132.618 26.6029 132.728 25.691 132.978 25.2489C134.03 23.3605 135.212 21.5366 136.329 19.6851C136.44 19.5009 136.532 19.2522 136.523 19.0403C136.357 14.9873 138.563 12.1041 141.287 9.51564C142.136 8.71424 143.161 8.07865 144.177 7.46148C145.709 6.53112 147.316 5.72972 148.858 4.79936C150.224 3.97954 151.72 3.81373 153.252 3.67556C154.277 3.58344 155.302 3.44527 156.299 3.18735C156.807 3.05839 157.324 2.71756 157.693 2.33068C158.875 1.09634 160.251 0.276519 161.95 0.0554431C163.593 -0.156421 164.682 0.764727 164.793 2.41358C164.959 4.90989 164.987 4.8362 167.351 5.74814C168.708 6.27319 169.963 7.06538 171.274 7.72861C171.542 7.86678 171.828 8.00495 172.115 8.06943C175.605 8.87083 177.931 11.0908 179.658 14.0937C179.842 14.4161 180.138 14.6741 180.369 14.978C181.477 16.4703 182.732 17.8797 183.655 19.4733C185.207 22.1538 187.284 24.2356 189.869 25.8844C190.128 26.0503 190.34 26.3634 190.469 26.649C190.875 27.6162 191.3 28.5926 191.596 29.5967C192.39 32.2496 193.054 34.9393 193.922 37.5738C194.827 40.3096 195.824 43.027 196.95 45.6799C198.381 49.0605 199.702 52.4504 200.182 56.1165C200.302 57.0561 200.468 58.0325 200.865 58.88C201.724 60.6946 201.484 62.6014 201.585 64.4898C201.631 65.4478 201.945 66.3965 202.213 67.3269C202.435 68.0915 202.749 68.8284 203.053 69.5745C203.579 70.8733 203.838 72.0708 202.536 73.1578C202.167 73.471 201.982 74.1895 201.973 74.7237C201.936 76.087 201.936 77.478 202.13 78.8228C202.352 80.3243 202.324 81.7705 201.853 83.2167C201.41 84.5708 200.597 85.1788 199.194 84.9024C198.483 84.7643 197.911 84.6261 197.477 85.3538C197.431 85.4275 197.19 85.3906 196.997 85.409C196.95 84.8195 196.895 84.2668 196.849 83.6773C196.553 83.6773 196.313 83.622 196.11 83.6865C195.344 83.9444 194.956 83.6497 194.578 82.968C194.273 82.4245 193.691 82.0469 193.23 81.5955C192.99 82.2127 192.703 82.8114 192.519 83.4378C192.297 84.2023 192.519 84.8287 193.156 85.3722C193.996 86.0907 193.442 86.9934 193.184 87.6843C192.593 89.2687 192.51 89.241 192.86 90.6688C192.38 90.8162 191.9 90.9636 191.439 91.1018C191.448 91.2583 191.439 91.3873 191.466 91.3965C193.156 92.2071 192.999 93.5704 192.583 95.0258C192.537 95.1732 192.556 95.339 192.491 95.468C191.512 97.1998 191.503 97.8446 192.491 99.7237C192.279 99.9171 192.057 100.12 191.845 100.313C193.202 103.067 193.184 103.289 191.226 104.237C191.771 104.412 192.122 104.523 192.482 104.633C192.482 105.444 193.011 106.328 194.07 107.286C193.71 107.332 193.433 107.351 193.165 107.406C192.888 107.461 192.611 107.544 191.983 107.71C192.583 108.005 192.879 108.134 193.147 108.29C193.387 108.429 193.599 108.613 193.83 108.769C193.599 108.926 193.387 109.101 193.137 109.221C192.916 109.34 192.666 109.396 192.214 109.562C192.823 109.884 193.239 110.105 193.571 110.28C193.617 111.017 193.617 111.689 193.71 112.343C193.885 113.486 194.365 114.702 192.436 115.098C192.51 115.19 192.583 115.273 192.657 115.365C193.128 115.475 193.608 115.577 194.079 115.687C193.83 116.544 193.617 117.41 193.313 118.239C192.186 121.242 191.743 124.392 191.919 127.542C192.057 130.103 192.694 132.627 193.082 135.169C193.128 135.446 193.027 135.75 192.971 136.035C192.759 136.993 192.537 137.951 192.325 138.909C192.297 139.02 192.343 139.186 192.279 139.241C191.319 140.19 191.494 141.489 191.697 142.52C191.956 143.847 192.666 145.118 193.35 146.315C193.747 146.997 194.43 147.485 192.98 147.891C193.857 148.904 194.633 149.779 195.381 150.682C196.637 152.183 196.276 153.353 194.347 153.629C193.082 153.814 191.771 153.758 190.478 153.703C188.992 153.648 187.505 153.482 186.019 153.371C183.96 153.215 183.36 152.634 183.102 150.599C182.981 149.659 182.834 148.71 182.686 147.771C182.658 147.596 182.594 147.283 182.511 147.273C180.442 146.951 180.876 145.007 180.443 143.791C179.999 142.576 180.267 141.102 180.258 139.748C180.258 139.25 180.341 138.744 180.378 138.246C180.239 138.209 180.092 138.163 179.953 138.126L178.494 141.746C178.411 141.746 178.328 141.728 178.254 141.719C178.264 141.443 178.19 141.12 178.31 140.89C178.975 139.545 178.587 138.274 177.146 137.988C175.66 137.693 175.595 136.671 175.586 135.621C175.568 134.497 175.743 133.373 175.872 131.881C175.134 132.563 174.663 133.005 173.989 133.631V130.647C173.86 130.591 173.73 130.536 173.601 130.481C173.084 131.209 172.576 131.936 171.967 132.802C171.653 132.314 171.358 131.78 170.988 131.282C170.721 130.923 170.36 130.619 170.047 130.297C169.954 130.766 169.834 131.227 169.779 131.706C169.76 131.872 169.89 132.056 169.973 132.314C168.108 132.636 168.514 134.046 168.588 135.51C167.526 134.958 166.64 134.497 165.578 133.944C166.058 135.289 166.492 136.505 166.935 137.721C166.861 137.776 166.787 137.832 166.714 137.878C166.132 137.518 165.541 137.15 164.645 136.597C165.439 138.836 164.027 140.153 163.334 141.7C163.15 142.115 163.085 142.566 162.947 142.999C162.771 143.543 162.587 144.077 162.282 144.584C162.725 146.094 162.66 146.067 161.986 147.826C161.469 149.162 161.128 150.571 160.74 151.962C160.675 152.202 160.639 152.552 160.768 152.736C161.488 153.85 160.934 154.182 159.891 154.504C156.853 155.453 153.751 155.066 150.677 154.965C149.476 154.928 148.812 153.666 149.19 152.496C149.947 150.157 150.76 147.835 151.535 145.505C151.618 145.256 151.701 144.989 151.711 144.731C151.729 143.718 151.711 142.704 151.711 141.544L151.729 141.571Z" fill="black"/>
<path d="M111.373 97.9919C106.489 95.0903 101.3 95.5693 95.964 96.6194C95.7978 98.2959 96.5457 99.8342 97.6536 101.151C98.6599 102.34 99.8417 103.381 100.996 104.44C103.175 106.448 105.067 108.659 106.388 111.339C107.634 113.882 109.222 116.203 111.253 118.23C111.89 118.865 112.463 119.943 112.435 120.809C112.361 124.024 113.238 127.063 113.82 130.168C114.438 133.456 114.983 136.763 115.602 140.061C115.87 141.498 115.98 143.036 117.651 143.773C117.901 143.884 117.965 144.731 117.891 145.21C117.55 147.43 117.661 147.872 119.664 148.858C121.021 149.53 122.489 149.963 123.911 150.488C124.336 150.645 124.862 150.636 125.213 150.875C125.684 151.188 126.265 151.64 126.367 152.109C126.432 152.423 125.804 153.012 125.361 153.279C123.736 154.274 121.889 154.357 120.043 154.348C118.058 154.348 116.063 154.403 114.088 154.274C111.936 154.136 111.364 153.196 111.918 151.179C112.066 150.636 112.213 150.028 112.13 149.493C111.586 146.232 110.995 142.981 110.376 139.729C110.275 139.213 110.071 138.697 109.813 138.237C107.856 134.737 107.015 130.941 106.748 126.98C106.637 125.405 106.037 124.014 104.8 122.973C102.03 120.643 99.2139 118.359 96.4441 116.028C95.0131 114.821 93.5543 113.633 92.2525 112.307C90.6553 110.676 88.7256 109.654 86.6575 108.834C86.3621 108.714 85.7897 108.834 85.5681 109.055C84.7648 109.856 83.9708 110.695 83.3246 111.625C82.3551 113.034 81.5981 114.6 80.6194 116C78.819 118.57 77.9881 121.564 76.8063 124.41C76.5663 125 76.3078 125.691 75.8461 126.069C72.6332 128.648 71.1098 132.378 69.0786 135.759C68.1923 137.233 67.4814 138.817 66.4843 140.199C64.9701 142.29 65.0255 144.713 64.7208 147.071C64.6747 147.448 64.6747 147.844 64.5639 148.204C64.3423 148.895 64.4346 149.355 65.0809 149.843C66.115 150.617 65.9395 151.75 64.8224 152.423C63.5021 153.224 62.0711 153.51 60.5384 153.399C58.6273 153.261 57.8333 152.377 58.138 150.479C58.3226 149.364 58.5534 148.195 59.052 147.2C61.0739 143.202 62.4311 138.983 63.6221 134.672C64.5085 131.439 66.078 128.519 68.5062 126.124C71.1837 123.489 72.8086 120.394 73.0948 116.562C73.4364 111.975 74.9967 107.636 76.1231 103.215C76.2708 102.635 76.2247 101.944 76.077 101.354C75.643 99.6961 76.2524 98.2222 76.9171 96.8405C79.6223 91.2123 82.4752 85.6485 85.1988 80.0295C87.0268 76.262 89.9905 73.6828 93.5358 71.6471C94.4868 71.1036 95.4008 70.4772 96.2779 69.8048C96.9242 69.3166 97.0442 68.7363 96.3333 68.1007C95.6501 67.4927 95.05 66.7926 94.4129 66.1294C91.0246 62.6014 92.4187 57.4246 96.9981 55.7849C99.0385 55.0572 100.839 55.048 102.732 55.8955C103.009 56.0244 103.35 56.2823 103.424 56.5495C103.978 58.6497 105.141 60.3262 106.794 61.7171C107.043 61.929 107.135 62.4264 107.154 62.8041C107.237 64.195 107.117 65.6136 107.357 66.9677C107.689 68.8284 106.96 69.943 105.058 69.9982C104.79 69.9982 104.495 69.943 104.264 70.0351C103.904 70.1825 103.35 70.4035 103.322 70.6523C103.276 71.0115 103.544 71.5089 103.83 71.7761C104.273 72.1721 104.837 72.4761 105.391 72.7156C106.185 73.0564 106.508 73.6644 106.434 74.4382C106.194 76.9713 105.88 79.4953 105.64 82.0284C105.603 82.443 105.695 82.968 105.935 83.2812C107.256 84.9853 108.991 86.3302 111.05 86.7355C112.075 86.9382 113.368 86.0631 114.466 85.5288C115.112 85.2156 115.611 84.5984 116.183 84.1194C116.285 84.1931 116.387 84.276 116.479 84.3497C116.045 85.0406 115.611 85.7314 115.02 86.671C116.193 86.8645 117.19 86.9842 118.168 87.2053C119.009 87.3895 120.089 86.7816 120.947 88.0527C120.246 88.0988 119.812 88.0988 119.387 88.1541C118.898 88.2186 118.372 88.237 117.947 88.4488C117.707 88.5686 117.661 89.0476 117.522 89.3608C117.845 89.4253 118.252 89.6555 118.482 89.5358C119.295 89.1121 119.978 89.1121 120.754 90.0056C119.267 90.1714 117.956 90.3188 116.322 90.503C117.051 91.1478 117.596 91.636 118.15 92.1242C118.132 92.1795 118.104 92.2348 118.085 92.29C117.781 92.1703 117.448 92.0966 117.181 91.9124C115.02 90.4293 112.5 89.9503 110.035 89.3055C109.813 89.2502 109.582 89.2226 109.351 89.2042C108.567 89.1397 107.219 89.9964 107.246 90.6412C107.283 91.6544 108.206 91.636 108.871 91.7005C110.201 91.8295 111.539 91.8018 112.878 91.8479C113.137 91.8479 113.386 91.9124 113.885 91.9768C112.758 93.1928 111.373 92.4098 110.182 93.1467C111.539 93.5889 112.887 94.031 114.282 94.4824C114.171 94.6205 114.125 94.7219 114.088 94.7219C113.257 94.7034 112.389 94.51 111.604 94.685C110.865 94.8508 110.21 95.3943 109.361 95.8457C110.127 96.4997 110.838 97.0984 111.549 97.7064C111.493 97.8077 111.438 97.8998 111.382 98.0011L111.373 97.9919ZM96.084 92.5664C98.0137 92.5664 99.5001 92.4558 100.977 92.594C103.433 92.8151 105.123 91.5807 106.637 89.9227C107.172 89.3331 107.043 88.8818 106.286 88.6699C105.335 88.3936 104.264 88.3475 103.433 87.8685C101.845 86.9474 100.58 87.3619 99.3247 88.412C98.9185 88.7528 98.3922 89.0015 98.0875 89.416C97.4135 90.3464 96.8411 91.3504 96.0748 92.5664H96.084Z" fill="black"/>
<path d="M111.078 95.6062C111.983 95.5693 113.044 95.0811 113.635 96.4628C112.62 96.3247 111.669 96.5549 111.078 95.6062Z" fill="black"/>
</svg>
