<svg xmlns="http://www.w3.org/2000/svg" width="20" height="20" viewBox="0 0 20 20" fill="none">
<mask id="mask0_887_1074" style="mask-type:alpha" maskUnits="userSpaceOnUse" x="0" y="0" width="20" height="20">
<rect width="20" height="20" fill="#D9D9D9"/>
</mask>
<g mask="url(#mask0_887_1074)">
<path d="M5.83337 18.3327C5.37504 18.3327 4.98268 18.1695 4.65629 17.8431C4.3299 17.5167 4.16671 17.1243 4.16671 16.666C4.16671 16.2077 4.3299 15.8153 4.65629 15.4889C4.98268 15.1625 5.37504 14.9993 5.83337 14.9993C6.29171 14.9993 6.68407 15.1625 7.01046 15.4889C7.33685 15.8153 7.50004 16.2077 7.50004 16.666C7.50004 17.1243 7.33685 17.5167 7.01046 17.8431C6.68407 18.1695 6.29171 18.3327 5.83337 18.3327ZM14.1667 18.3327C13.7084 18.3327 13.316 18.1695 12.9896 17.8431C12.6632 17.5167 12.5 17.1243 12.5 16.666C12.5 16.2077 12.6632 15.8153 12.9896 15.4889C13.316 15.1625 13.7084 14.9993 14.1667 14.9993C14.625 14.9993 15.0174 15.1625 15.3438 15.4889C15.6702 15.8153 15.8334 16.2077 15.8334 16.666C15.8334 17.1243 15.6702 17.5167 15.3438 17.8431C15.0174 18.1695 14.625 18.3327 14.1667 18.3327ZM4.33337 3.33268H16.625C16.9445 3.33268 17.1875 3.47504 17.3542 3.75977C17.5209 4.04449 17.5278 4.33268 17.375 4.62435L14.4167 9.95768C14.2639 10.2355 14.0591 10.4507 13.8021 10.6035C13.5452 10.7563 13.2639 10.8327 12.9584 10.8327H6.75004L5.83337 12.4993H15.8334V14.166H5.83337C5.20837 14.166 4.73615 13.8917 4.41671 13.3431C4.09726 12.7945 4.08337 12.2493 4.37504 11.7077L5.50004 9.66602L2.50004 3.33268H0.833374V1.66602H3.54171L4.33337 3.33268Z" fill="black"/>
</g>
</svg>