<svg xmlns="http://www.w3.org/2000/svg" width="41" height="28" viewBox="0 0 41 28" fill="none">
  <rect x="1.44553" y="0.695531" width="38.8589" height="26.6089" rx="7.30447" fill="white" stroke="#B9C6CE" stroke-width="1.39106"/>
  <path d="M16.915 27.1199L40.0414 20.1211V22.9467C40.0414 25.2515 38.173 27.1199 35.8683 27.1199H16.915Z" fill="#FD6020"/>
  <path fill-rule="evenodd" clip-rule="evenodd" d="M35.5478 10.6309C36.7852 10.6309 37.4658 11.195 37.4658 12.2606C37.5277 13.0754 36.9708 13.7649 36.2284 13.8903L37.8989 16.2095H36.5996L35.1765 13.953H35.0528V16.2095H34.001V10.6309H35.5478ZM35.0527 13.2002H35.3621C36.0427 13.2002 36.3521 12.8868 36.3521 12.3227C36.3521 11.8212 36.0427 11.5078 35.3621 11.5078H35.0527V13.2002ZM30.3506 16.2076H33.3205V15.2673H31.4024V13.763H33.2586V12.8228H31.4024V11.5691H33.3205V10.6289H30.3506V16.2076ZM27.2584 14.3898L25.8354 10.6289H24.7217L27.011 16.3329H27.5678L29.8571 10.6289H28.7434L27.2584 14.3898ZM14.6963 13.45C14.6963 15.0171 15.9337 16.3334 17.4805 16.3334C17.9755 16.3334 18.4086 16.208 18.8417 16.02V14.7663C18.5324 15.1424 18.0993 15.3932 17.6043 15.3932C16.6143 15.3932 15.81 14.641 15.81 13.6381V13.5127C15.7481 12.5098 16.5525 11.6323 17.5424 11.5696C18.0374 11.5696 18.5324 11.8203 18.8417 12.1964V10.9428C18.4705 10.692 17.9755 10.6294 17.5424 10.6294C15.9337 10.504 14.6963 11.8203 14.6963 13.45ZM12.7793 12.7605C12.1606 12.5098 11.9749 12.3844 11.9749 12.071C12.0368 11.6949 12.3462 11.3815 12.7174 11.4442C13.0268 11.4442 13.3361 11.6322 13.5836 11.883L14.1405 11.1308C13.7074 10.7547 13.1505 10.504 12.5937 10.504C11.7274 10.4413 10.985 11.1308 10.9231 12.0083V12.071C10.9231 12.8232 11.2325 13.2619 12.2224 13.5753C12.4699 13.638 12.7174 13.7634 12.9649 13.8888C13.1505 14.0141 13.2743 14.2022 13.2743 14.4529C13.2743 14.8917 12.903 15.2677 12.5318 15.2677H12.4699C11.9749 15.2677 11.5418 14.9543 11.3562 14.5156L10.6756 15.2051C11.0469 15.8946 11.7893 16.2707 12.5318 16.2707C13.5217 16.3333 14.3261 15.5812 14.388 14.5783V14.3902C14.3261 13.638 14.0167 13.2619 12.7793 12.7605ZM9.19141 16.2076H10.2432V10.6289H9.19141V16.2076ZM4.30273 10.6309H5.84954H6.1589C7.64383 10.6935 8.8194 11.9472 8.75753 13.4515C8.75753 14.2664 8.3863 15.0186 7.76758 15.5827C7.21073 16.0215 6.53013 16.2722 5.84954 16.2095H4.30273V10.6309ZM5.66385 15.2688C6.15883 15.3315 6.71568 15.1434 7.08691 14.83C7.45815 14.454 7.64376 13.9525 7.64376 13.3884C7.64376 12.8869 7.45815 12.3855 7.08691 12.0094C6.71568 11.696 6.15883 11.5079 5.66385 11.5706H5.35449V15.2688H5.66385Z" fill="#121212"/>
  <path fill-rule="evenodd" clip-rule="evenodd" d="M21.9965 10.5C20.4497 10.5 19.1504 11.7536 19.1504 13.3833C19.1504 14.9504 20.3878 16.2667 21.9965 16.3294C23.6052 16.3921 24.8426 15.0757 24.9045 13.446C24.8426 11.8163 23.6052 10.5 21.9965 10.5V10.5Z" fill="#FD6020"/>
</svg>
