<svg width="20" height="21" viewBox="0 0 20 21" fill="none" xmlns="http://www.w3.org/2000/svg">
<g id="location_on">
<mask id="mask0_669_4018" style="mask-type:alpha" maskUnits="userSpaceOnUse" x="0" y="0" width="20" height="21">
<rect id="Bounding box" y="0.5" width="20" height="20" fill="#D9D9D9"/>
</mask>
<g mask="url(#mask0_669_4018)">
<path id="location_on_2" d="M10 10.4998C10.4584 10.4998 10.8507 10.3366 11.1771 10.0103C11.5035 9.68387 11.6667 9.2915 11.6667 8.83317C11.6667 8.37484 11.5035 7.98248 11.1771 7.65609C10.8507 7.3297 10.4584 7.1665 10 7.1665C9.54171 7.1665 9.14935 7.3297 8.82296 7.65609C8.49657 7.98248 8.33337 8.37484 8.33337 8.83317C8.33337 9.2915 8.49657 9.68387 8.82296 10.0103C9.14935 10.3366 9.54171 10.4998 10 10.4998ZM10 16.6248C11.6945 15.0693 12.9514 13.6561 13.7709 12.3853C14.5903 11.1144 15 9.98595 15 8.99984C15 7.48595 14.5174 6.24636 13.5521 5.28109C12.5868 4.31581 11.4028 3.83317 10 3.83317C8.59726 3.83317 7.41323 4.31581 6.44796 5.28109C5.48268 6.24636 5.00004 7.48595 5.00004 8.99984C5.00004 9.98595 5.40976 11.1144 6.22921 12.3853C7.04865 13.6561 8.3056 15.0693 10 16.6248ZM10 18.8332C7.76393 16.9304 6.09379 15.163 4.98962 13.5311C3.88546 11.8991 3.33337 10.3887 3.33337 8.99984C3.33337 6.9165 4.00351 5.25678 5.34379 4.02067C6.68407 2.78456 8.23615 2.1665 10 2.1665C11.7639 2.1665 13.316 2.78456 14.6563 4.02067C15.9966 5.25678 16.6667 6.9165 16.6667 8.99984C16.6667 10.3887 16.1146 11.8991 15.0105 13.5311C13.9063 15.163 12.2362 16.9304 10 18.8332Z" fill="#C5C5C5"/>
</g>
</g>
</svg>
