<svg width="20" height="20" viewBox="0 0 20 20" fill="none" xmlns="http://www.w3.org/2000/svg">
<g id="location_on">
<mask id="mask0_518_2033" style="mask-type:alpha" maskUnits="userSpaceOnUse" x="0" y="0" width="20" height="20">
<rect id="Bounding box" width="20" height="20" fill="#D9D9D9"/>
</mask>
<g mask="url(#mask0_518_2033)">
<path id="location_on_2" d="M9.99999 9.99996C10.4583 9.99996 10.8507 9.83677 11.1771 9.51038C11.5035 9.18399 11.6667 8.79163 11.6667 8.33329C11.6667 7.87496 11.5035 7.4826 11.1771 7.15621C10.8507 6.82982 10.4583 6.66663 9.99999 6.66663C9.54166 6.66663 9.1493 6.82982 8.82291 7.15621C8.49652 7.4826 8.33333 7.87496 8.33333 8.33329C8.33333 8.79163 8.49652 9.18399 8.82291 9.51038C9.1493 9.83677 9.54166 9.99996 9.99999 9.99996ZM9.99999 16.125C11.6944 14.5694 12.9514 13.1562 13.7708 11.8854C14.5903 10.6145 15 9.48607 15 8.49996C15 6.98607 14.5174 5.74649 13.5521 4.78121C12.5868 3.81593 11.4028 3.33329 9.99999 3.33329C8.59722 3.33329 7.41319 3.81593 6.44791 4.78121C5.48263 5.74649 4.99999 6.98607 4.99999 8.49996C4.99999 9.48607 5.40972 10.6145 6.22916 11.8854C7.04861 13.1562 8.30555 14.5694 9.99999 16.125ZM9.99999 18.3333C7.76388 16.4305 6.09374 14.6632 4.98958 13.0312C3.88541 11.3993 3.33333 9.88885 3.33333 8.49996C3.33333 6.41663 4.00347 4.7569 5.34374 3.52079C6.68402 2.28468 8.23611 1.66663 9.99999 1.66663C11.7639 1.66663 13.316 2.28468 14.6562 3.52079C15.9965 4.7569 16.6667 6.41663 16.6667 8.49996C16.6667 9.88885 16.1146 11.3993 15.0104 13.0312C13.9062 14.6632 12.2361 16.4305 9.99999 18.3333Z" fill="white"/>
</g>
</g>
</svg>
