<svg width="150" height="50" viewBox="0 0 150 50" fill="none" xmlns="http://www.w3.org/2000/svg">
<path d="M12.5841 50C10.893 48.4965 10.4565 46.3947 10.0249 44.3287C9.25718 40.6672 8.63496 36.975 7.54105 33.3902C7.43066 33.0322 7.38549 32.6486 7.34033 32.2753C7.24499 31.4418 7.40557 31.1452 8.1984 30.9304C8.83568 30.7565 9.50306 30.6747 10.1554 30.5571C10.7876 30.4446 11.4249 30.3372 12.0572 30.2196C12.8299 30.0713 13.0909 30.1991 13.1762 30.9713C13.3769 32.7254 13.5174 34.4896 13.678 36.2488C13.7633 37.2102 13.8185 38.1767 13.9339 39.1381C13.969 39.4194 14.1547 39.6853 14.3253 40.0842C14.4307 38.7853 14.5009 37.6705 14.6063 36.5608C14.812 34.4641 15.0378 32.3725 15.2536 30.2809C15.3088 29.744 15.5748 29.4525 16.1217 29.386C17.3611 29.2377 18.5955 29.0638 19.83 28.8951C20.2765 28.8337 20.5877 29.0076 20.678 29.4371C20.9038 30.4599 21.1748 31.4827 21.2751 32.5208C21.4658 34.4487 21.5461 36.3869 21.6916 38.3199C21.7117 38.6114 21.812 38.8978 21.8722 39.1893C21.9475 39.1893 22.0178 39.1893 22.093 39.1893C22.1733 38.8825 22.2938 38.5807 22.3239 38.2637C22.5898 35.5431 22.8507 32.8174 23.0816 30.0917C23.1117 29.7337 22.9862 29.3502 22.8859 28.9973C22.7755 28.5985 22.8558 28.4297 23.2923 28.3735C24.6923 28.1945 26.0923 27.9797 27.4873 27.7649C28.2751 27.6422 28.5361 27.8109 28.4407 28.6087C28.2852 29.882 28.0594 31.1452 27.8185 32.4032C27.0407 36.4943 26.2479 40.5803 25.445 44.6662C25.3145 45.3464 25.1389 46.0214 24.9633 46.6913C24.7475 47.5147 24.2206 48.0414 23.3877 48.2204C22.7153 48.3585 22.0429 48.517 21.3654 48.5937C20.5325 48.6908 20.131 48.3431 19.9955 47.5096C19.6041 45.1674 19.2228 42.8252 18.8113 40.4882C18.7712 40.2581 18.5654 40.0586 18.435 39.8439C18.2794 40.0433 18.0285 40.2274 17.9884 40.4473C17.7877 41.6286 17.6672 42.8252 17.4615 44.0014C17.2256 45.3464 16.9396 46.6862 16.6586 48.0209C16.4429 49.0335 16.0916 49.7034 14.812 49.642C14.526 49.6267 14.24 49.6778 13.9489 49.7648C14.245 49.8415 14.536 49.9182 14.8321 50H12.579H12.5841Z" fill="#2F2D2D"/>
<path d="M149.995 15.8291C149.127 16.6269 148.284 17.4605 147.376 18.2173C146.653 18.8207 146.608 18.8668 146.919 19.7361C147.225 20.585 147.481 21.4544 147.772 22.3084C147.993 22.963 147.677 23.4079 147.22 23.7914C146.773 24.1699 146.287 24.2312 145.79 23.8681C144.847 23.1778 143.903 22.4874 142.91 21.7561C142.257 22.2521 141.565 22.7789 140.867 23.3005C140.601 23.4999 140.32 23.684 140.044 23.8732C139.568 24.2005 139.101 24.2619 138.619 23.8528C138.123 23.4386 137.877 22.9579 138.082 22.3033C138.358 21.4186 138.589 20.5237 138.91 19.6543C139.136 19.0509 138.986 18.6673 138.484 18.3145C137.816 17.844 137.189 17.3224 136.547 16.8212C135.995 16.3917 135.674 15.8649 135.895 15.1234C136.11 14.4024 136.692 14.1518 137.33 14.0955C138.113 14.0239 138.91 14.0444 139.698 14.0853C140.325 14.1211 140.667 13.8961 140.812 13.2671C140.968 12.592 141.168 11.9272 141.399 11.2727C141.53 10.9045 141.695 10.5158 141.941 10.2243C142.538 9.5135 143.457 9.59532 143.928 10.3982C144.169 10.8073 144.315 11.2829 144.47 11.738C144.651 12.275 144.801 12.8222 144.957 13.3694C145.103 13.8859 145.409 14.1364 145.966 14.0802C146.442 14.0342 146.924 14.07 147.401 14.0342C148.434 13.9575 149.338 14.2029 150 15.0723V15.8342L149.995 15.8291Z" fill="#FF0000"/>
<path d="M59.316 13.1341C59.3762 13.9575 59.4666 14.7859 59.4917 15.6092C59.5418 17.1281 59.577 18.6418 59.5519 20.1606C59.5519 20.4009 59.2157 20.7947 58.9798 20.8458C57.7053 21.1322 56.4106 21.3572 55.116 21.5515C54.539 21.6385 54.3683 21.2447 54.3583 20.7231C54.3282 19.0151 54.2931 17.307 54.2479 15.599C54.1576 11.9937 54.0522 8.38845 53.9669 4.78317C53.9468 3.98029 53.992 3.18253 53.982 2.37965C53.9719 1.80179 54.283 1.47961 54.7848 1.43359C56.0895 1.32108 57.3992 1.26483 58.7089 1.20858C59.1454 1.18812 59.3562 1.46427 59.4816 1.88361C60.2895 4.55816 61.1124 7.23272 61.9504 9.89704C62.0558 10.2346 62.2465 10.5516 62.397 10.8789C62.4773 10.8636 62.5576 10.8482 62.6379 10.8329C62.658 10.5209 62.7232 10.209 62.6931 9.90216C62.5074 7.69808 62.3067 5.49911 62.111 3.29504C62.0558 2.68649 62.0357 2.07282 61.9404 1.46939C61.8651 0.998909 62.0107 0.799468 62.4723 0.779013C63.782 0.717646 65.0917 0.635824 66.4013 0.569344C66.9383 0.543775 67.1339 0.901746 67.1891 1.36199C67.3196 2.45125 67.4952 3.53539 67.5404 4.62464C67.6307 6.77247 67.6558 8.92541 67.696 11.0732C67.7461 13.8143 67.7612 16.5553 67.8264 19.2963C67.8415 19.9509 67.6107 20.3651 66.9934 20.5083C65.9397 20.7487 64.8909 21.0146 63.8221 21.168C63.1146 21.2703 62.7382 20.7129 62.4974 20.1197C61.9705 18.8156 61.4787 17.4963 60.9569 16.1871C60.6157 15.328 60.2694 14.474 59.9031 13.6251C59.8178 13.4256 59.6623 13.2517 59.5368 13.0676L59.301 13.129L59.316 13.1341Z" fill="#2F2D2D"/>
<path d="M120.831 39.4041C120.801 39.6598 120.735 39.9206 120.745 40.1763C120.811 42.1758 120.886 44.1753 120.976 46.1697C121.001 46.7578 120.72 47.0544 120.183 47.08C119.019 47.1413 117.855 47.1874 116.691 47.1874C116.044 47.1874 115.813 46.8959 115.778 46.1595C115.733 45.2952 115.718 44.431 115.697 43.5668C115.587 38.4682 115.472 33.3697 115.386 28.2661C115.361 26.9313 115.477 26.8546 116.771 26.962C117.765 27.0438 118.758 27.1615 119.757 27.2382C120.434 27.2893 120.776 27.6473 120.956 28.3019C121.659 30.8537 122.381 33.4004 123.129 35.942C123.3 36.5147 123.596 37.0517 123.837 37.6091C123.927 37.5835 124.012 37.5528 124.102 37.5273C124.062 36.8778 124.032 36.2284 123.982 35.5789C123.837 33.7532 123.676 31.9276 123.525 30.1071C123.465 29.4167 123.435 28.7212 123.345 28.0308C123.295 27.6422 123.395 27.4581 123.791 27.4939C125.116 27.6217 126.446 27.7393 127.766 27.8876C128.368 27.9541 128.513 28.4399 128.563 28.9411C128.744 30.6594 129.01 32.3725 129.045 34.0959C129.135 38.3097 129.125 42.5286 129.14 46.7425C129.14 47.8215 129.035 47.9135 127.956 47.9749C127.188 48.0209 126.421 48.0567 125.648 48.067C124.609 48.0823 124.253 47.8266 123.882 46.8192C123.084 44.6509 122.306 42.4724 121.513 40.3041C121.398 39.9819 121.227 39.6802 121.087 39.3683C121.006 39.3785 120.921 39.3938 120.841 39.4041H120.831Z" fill="#2F2D2D"/>
<path d="M128.804 13.8756C129.005 12.2903 128.719 10.6999 128.644 9.11973C128.568 7.50886 128.388 5.90311 128.242 4.18485C129.145 4.2411 130.029 4.28201 130.907 4.35872C131.444 4.40475 131.981 4.50191 132.513 4.57862C133.1 4.66555 133.406 4.9775 133.496 5.60651C133.998 9.16576 133.993 12.7455 133.978 16.3303C133.968 18.7338 134.063 21.1373 134.098 23.5408C134.108 24.3897 133.902 24.625 133.049 24.6864C132.242 24.7477 131.429 24.7579 130.616 24.7784C129.738 24.7989 129.161 24.3744 128.864 23.5408C128.047 21.2447 127.224 18.9537 126.391 16.6627C126.3 16.4121 126.15 16.1871 126.029 15.9519C125.944 15.9723 125.859 15.9928 125.778 16.0132C125.763 16.3507 125.718 16.6883 125.733 17.0258C125.804 18.8565 125.904 20.6873 125.969 22.5181C125.999 23.413 125.799 23.6687 124.905 23.7045C123.806 23.7454 122.697 23.7045 121.599 23.6738C121.052 23.6585 120.781 23.3363 120.766 22.7738C120.69 19.9509 120.595 17.1281 120.53 14.3052C120.459 11.2266 120.419 8.1481 120.369 5.07466C120.369 4.79851 120.369 4.52748 120.389 4.25133C120.434 3.65301 120.695 3.3922 121.272 3.44845C122.512 3.57119 123.751 3.7246 124.991 3.86268C125.583 3.92916 125.743 4.38429 125.879 4.85988C126.657 7.59069 127.434 10.3164 128.217 13.0421C128.302 13.3336 128.428 13.6148 128.538 13.9012C128.634 13.891 128.724 13.8807 128.819 13.8705L128.804 13.8756Z" fill="#2F2D2D"/>
<path d="M18.4701 13.5535C18.4701 11.0016 18.4851 8.45493 18.4601 5.90311C18.455 5.22296 18.731 4.76783 19.3583 4.66044C21.1998 4.34338 23.0414 3.92916 24.893 3.83711C27.0608 3.72972 28.8973 4.71158 30.3074 6.38893C33.4637 10.1425 33.9705 15.149 31.2959 19.3935C30.1167 21.2601 28.3203 22.4158 26.3934 23.3823C24.2809 24.446 21.9826 24.671 19.6894 24.942C19.2178 24.9983 18.9819 24.7733 18.9217 24.3284C18.7712 23.2033 18.5303 22.0834 18.5002 20.9532C18.435 18.4883 18.4801 16.0235 18.4801 13.5586C18.4801 13.5586 18.4701 13.5586 18.4651 13.5586L18.4701 13.5535ZM23.5031 14.4995C23.5031 14.4995 23.4629 14.4995 23.4429 14.4995C23.4429 15.9723 23.4328 17.4451 23.4529 18.923C23.4529 19.1276 23.5984 19.3372 23.6787 19.5418C23.8794 19.46 24.1303 19.4344 24.2658 19.2912C24.9181 18.5855 25.5554 17.8593 26.1676 17.1178C27.1812 15.8956 27.5676 14.4637 27.4672 12.8887C27.3619 11.1704 26.1927 9.59021 24.6572 9.04814C23.8995 8.78222 23.5432 8.94075 23.5181 9.70271C23.4679 11.2982 23.5031 12.8989 23.5031 14.4995Z" fill="#2F2D2D"/>
<path d="M102.229 12.4182C102.601 9.52884 102.566 6.81849 104.071 4.49168C105.105 2.89615 106.49 1.74042 108.426 1.52564C109.044 1.45916 109.711 1.587 110.318 1.7711C113.128 2.61489 114.9 4.55816 115.667 7.36568C116.174 9.22201 116.711 11.1397 116.756 13.0421C116.826 16.1257 116.239 19.1071 113.5 21.1169C112.024 22.1959 110.303 22.5385 108.562 22.6868C108.005 22.738 107.318 22.4311 106.851 22.0681C105.943 21.3675 105.125 20.5441 104.322 19.7208C103.529 18.9077 103.268 17.8082 103.022 16.7496C102.676 15.241 102.46 13.6966 102.229 12.408V12.4182ZM108.01 11.4005C108.01 12.9551 107.905 14.5149 108.452 16.0235C108.868 17.1741 109.831 17.4247 110.649 16.5195C110.84 16.3098 110.996 16.0388 111.086 15.7627C111.713 13.8961 111.974 11.9937 111.257 10.1016C110.981 9.37031 110.579 8.65948 110.107 8.04071C109.892 7.75944 109.29 7.51398 108.993 7.62137C108.617 7.75944 108.336 8.24526 108.09 8.63391C107.97 8.82313 108.02 9.12485 108.015 9.37543C108.005 10.0505 108.015 10.7255 108.015 11.4005H108.01Z" fill="#2F2D2D"/>
<path d="M37.759 40.1098C37.7038 40.3246 37.5884 40.5445 37.5984 40.7592C37.6687 42.4008 37.749 44.0372 37.8493 45.6737C37.8794 46.1799 37.6988 46.4817 37.207 46.5891C36.1282 46.8192 35.0594 47.0749 33.9755 47.2794C33.4034 47.3868 33.0472 47.0953 32.992 46.5021C32.9267 45.7657 32.8866 45.0293 32.8766 44.2929C32.8214 41.0661 32.7913 37.8443 32.721 34.6175C32.6809 32.9146 32.5404 31.2116 32.5002 29.5036C32.4651 27.9337 32.9167 27.4018 34.4221 27.0285C36.354 26.5478 38.3009 26.3023 40.2931 26.5989C42.8572 26.9876 44.9497 28.7059 45.4716 31.0838C45.9031 33.0578 45.4615 34.8936 44.207 36.4892C43.7655 37.0466 43.2687 37.5631 42.7719 38.0745C42.4959 38.3608 42.4508 38.6012 42.6615 38.9592C43.7454 40.8308 44.8092 42.7127 45.878 44.5895C46.2443 45.2339 46.1339 45.5509 45.4364 45.6634C44.187 45.8629 42.9225 46.0112 41.668 46.1799C41.116 46.2515 40.7447 46.0163 40.5189 45.5151C39.8414 44.0014 39.164 42.4877 38.4816 40.974C38.3411 40.6621 38.1554 40.3757 37.9898 40.0791C37.9146 40.0842 37.8443 40.0944 37.769 40.0996L37.759 40.1098ZM37.5282 35.4817C38.8529 35.3999 40.273 33.2214 39.7812 32.0401C39.45 31.2372 38.7676 30.7821 37.9948 30.4701C37.6436 30.327 37.5332 30.5673 37.5332 30.8486C37.5232 32.3776 37.5332 33.9118 37.5332 35.4817H37.5282Z" fill="#2F2D2D"/>
<path d="M42.1748 8.41913C42.2651 10.3522 42.3303 12.2903 42.4608 14.2234C42.4909 14.699 42.5361 15.3331 43.1483 15.4405C43.7805 15.553 44.1318 15.016 44.3726 14.5404C44.5733 14.1416 44.6988 13.6608 44.6988 13.2159C44.6938 9.92773 44.6486 6.63951 44.6085 3.35129C44.6085 3.20299 44.5884 3.05468 44.5683 2.9115C44.4178 1.81713 44.4178 1.82736 45.5368 1.79156C46.5755 1.76088 47.6192 1.73019 48.6579 1.65348C49.2199 1.61257 49.4809 1.82224 49.4909 2.38477C49.501 3.10071 49.4759 3.81665 49.5311 4.53259C49.6465 6.06675 49.7569 7.60091 49.9475 9.12485C50.2035 11.1704 49.8472 13.1648 49.5009 15.149C49.2751 16.4428 48.944 17.7366 48.5074 18.9742C48.2816 19.6236 47.7748 20.1964 47.3131 20.7282C45.9583 22.2879 44.2522 22.7482 42.2802 22.2164C42.0594 22.155 41.8436 22.0732 41.6228 22.0118C39.2543 21.393 38.03 19.7822 37.749 17.3837C37.5583 15.7524 37.3475 14.1211 37.2823 12.4847C37.1719 9.6618 37.1569 6.83383 37.1167 4.01098C37.1017 2.81945 37.5332 2.36431 38.7024 2.2876C39.4701 2.23647 40.2429 2.20067 41.0106 2.1751C41.9189 2.14953 42.2049 2.41545 42.225 3.35129C42.245 4.36384 42.23 5.37638 42.23 6.38893C42.23 7.06396 42.23 7.73899 42.23 8.41402C42.2149 8.41402 42.1949 8.41402 42.1798 8.41402L42.1748 8.41913Z" fill="#2F2D2D"/>
<path d="M84.1698 12.3568C84.0644 13.6353 84.0343 14.924 83.8286 16.1871C83.5827 17.6701 82.6895 18.7696 81.3748 19.4344C79.3175 20.4725 77.22 20.6669 75.0673 19.639C73.2608 18.7798 72.5433 17.1383 72.0164 15.3842C71.7856 14.612 71.7304 13.7682 71.6852 12.9551C71.5146 10.0607 71.5397 7.17646 72.3978 4.37406C72.6336 3.59675 72.9598 2.81945 73.3963 2.14442C74.2845 0.779013 75.549 -0.00852311 77.215 0.00681849C77.4458 0.00681849 77.6716 -0.00852311 77.9024 0.00681849C78.9562 0.063071 80.0802 -0.121028 80.9784 0.579572C82.3082 1.61769 83.4372 2.85013 84.0695 4.47634C84.2551 4.95193 84.1297 5.3099 83.7333 5.56559C82.7046 6.23551 81.5956 6.72133 80.3612 6.76735C80.1053 6.77758 79.7892 6.51677 79.5885 6.29176C79.4229 6.10255 79.4379 5.74969 79.2773 5.54514C79.0264 5.22297 78.7103 4.75249 78.3892 4.72181C77.8874 4.68089 77.4358 5.01841 77.2401 5.60139C76.6429 7.36568 76.2917 9.1811 76.2013 11.0374C76.1612 11.8966 76.1211 12.7659 76.2214 13.6097C76.3218 14.4791 76.8386 15.103 77.7117 15.3791C78.2236 15.5376 78.6802 15.374 78.9261 14.97C79.2171 14.4944 79.3677 13.9217 79.5232 13.3796C79.5433 13.308 79.2523 13.0983 79.0766 13.0318C78.8458 12.9449 78.5899 12.9193 78.339 12.9142C77.9024 12.904 77.7619 12.6688 77.7619 12.2648C77.7619 11.1499 77.7669 10.03 77.7368 8.91518C77.7268 8.47027 77.9175 8.36288 78.2988 8.39356C79.8544 8.5163 81.415 8.61858 82.9655 8.75665C83.7533 8.82313 84.0695 9.20156 84.0745 9.99932C84.0795 10.7817 84.0745 11.559 84.0745 12.3415C84.0996 12.3415 84.1297 12.3415 84.1548 12.3466L84.1698 12.3568Z" fill="#2F2D2D"/>
<path d="M138.976 37.517C139.824 37.7114 140.506 37.8648 141.189 38.0233C142.222 38.2637 143.251 38.504 144.285 38.7495C144.907 38.8978 145.293 39.2916 145.278 39.9461C145.233 42.0275 145.243 44.1191 145.047 46.1902C144.882 47.9084 143.311 49.2738 141.454 49.4375C139.753 49.5858 138.102 49.3147 136.577 48.43C134.57 47.2692 133.742 45.331 133.275 43.2241C132.613 40.2427 132.733 37.2358 133.33 34.2595C133.536 33.2367 133.817 32.2089 134.234 31.2628C135.006 29.5138 136.507 28.8593 138.308 28.9309C140.712 29.028 142.639 30.0355 143.878 32.1986C144.325 32.981 144.786 33.7532 145.213 34.5459C145.484 35.0471 145.358 35.4971 144.806 35.6556C143.853 35.9266 142.89 36.1823 141.916 36.3255C141.304 36.4176 140.852 36.0596 140.702 35.3897C140.632 35.088 140.546 34.7453 140.356 34.5203C140.11 34.2391 139.703 33.8351 139.452 33.8913C139.076 33.9731 138.564 34.3516 138.479 34.6993C138.072 36.3255 137.781 37.9824 137.465 39.6291C137.234 40.8155 137.064 42.0121 137.596 43.1628C137.781 43.5616 138.037 43.9963 138.383 44.2418C139.523 45.0549 140.16 44.6253 140.702 43.4287C140.973 42.8355 140.762 42.4826 140.135 42.2883C138.92 41.9099 138.935 41.9099 138.966 40.6314C138.986 39.6495 138.966 38.6626 138.966 37.517H138.976Z" fill="#2F2D2D"/>
<path d="M49.3253 39.4757C49.4207 36.0391 49.5361 32.6077 49.6063 29.1712C49.6214 28.3121 49.516 27.4478 49.4257 26.5887C49.3303 25.7194 49.6164 25.2642 50.4744 25.2284C53.3045 25.1159 56.1347 25.0443 58.9648 24.9472C59.4114 24.9318 59.6572 25.1415 59.6572 25.5608C59.6572 26.783 59.6372 28.0053 59.587 29.2275C59.5619 29.8156 59.1304 29.9945 58.6185 29.9741C57.911 29.9485 57.2085 29.8616 56.501 29.8514C55.7483 29.8411 55.668 29.9485 55.678 30.6849C55.678 31.1503 55.678 31.6105 55.6931 32.0759C55.7031 32.6129 55.9791 32.889 56.516 32.8685C57.0579 32.8481 57.5999 32.8225 58.1368 32.7867C58.6386 32.756 58.9397 32.9657 58.9748 33.4873C59.0551 34.684 59.1554 35.8806 59.1906 37.0824C59.1956 37.2767 58.9347 37.604 58.744 37.65C57.9261 37.8443 57.0881 38.0284 56.2501 38.0745C55.6379 38.1051 55.382 38.2534 55.2916 38.9131C55.0909 40.391 55.2615 40.1353 56.3855 40.1047C57.1332 40.0791 57.8859 40.0535 58.6336 40.0126C59.1053 39.987 59.4565 40.1916 59.4615 40.6621C59.4816 41.8792 59.4766 43.0963 59.3913 44.3083C59.3562 44.8145 58.8494 44.9935 58.3977 45.0191C55.8838 45.1725 53.3748 45.3413 50.8558 45.418C49.6264 45.4538 49.4257 45.1776 49.4156 43.9145C49.4006 42.4366 49.4156 40.9638 49.4156 39.4859C49.3855 39.4859 49.3504 39.4859 49.3203 39.4859L49.3253 39.4757Z" fill="#2F2D2D"/>
<path d="M98.3354 3.59675C98.3354 4.10303 98.3455 4.6093 98.3354 5.11557C98.3103 6.03096 97.9541 6.30711 97.0558 6.15369C96.3784 6.03607 95.701 5.93891 95.0236 5.83663C94.6171 5.77526 94.3963 5.91334 94.4214 6.3787C94.4515 6.94634 94.4465 7.51398 94.4465 8.08162C94.4465 8.48561 94.6523 8.72597 95.0336 8.76688C95.5906 8.82824 96.1526 8.85381 96.7096 8.89472C97.4874 8.95098 97.6881 9.14019 97.7483 9.92772C97.8236 10.9556 97.8637 11.9886 97.9641 13.0165C98.0193 13.5841 97.7885 13.8705 97.2666 13.9063C96.4437 13.9626 95.6107 14.0137 94.7877 13.9779C94.3411 13.9575 94.1103 14.0546 94.0602 14.5098C94.0351 14.7399 93.9899 14.9649 93.9598 15.195C93.8845 15.7115 94.1404 15.9365 94.6222 15.9621C95.4351 16.0081 96.2429 16.0541 97.0558 16.1002C97.8788 16.1462 98.225 16.3917 98.2601 17.2252C98.3053 18.294 98.2501 19.373 98.1849 20.4418C98.1548 20.9021 97.8136 21.1322 97.3519 21.1169C94.7125 21.035 92.068 20.9686 89.4286 20.851C88.4451 20.8049 88.2143 20.4981 88.2042 19.4855C88.1741 16.1769 88.134 12.8682 88.134 9.55953C88.134 6.90543 88.1791 4.25644 88.2042 1.60235C88.2093 0.896632 88.43 0.620483 89.1426 0.651166C91.2401 0.732988 93.3376 0.855721 95.4351 0.97334C96.1426 1.01425 96.8451 1.10119 97.5476 1.15233C98.0946 1.18812 98.3956 1.41825 98.3605 2.02168C98.3354 2.54841 98.3555 3.07514 98.3555 3.60187C98.3505 3.60187 98.3404 3.60187 98.3354 3.60187V3.59675Z" fill="#2F2D2D"/>
<path d="M69.3569 24.4051C71.1332 24.4051 72.478 25.0699 73.582 26.2665C74.0537 26.7779 74.1942 27.3404 73.9031 28.0053C73.5167 28.8899 73.1655 29.79 72.7841 30.6798C72.5483 31.2321 72.3175 31.2986 71.8257 30.9508C71.4694 30.6951 71.1433 30.3985 70.792 30.1377C70.2752 29.7542 69.7633 29.7695 69.2465 30.1735C68.7347 30.5775 68.6494 30.9099 69.111 31.3753C69.8135 32.0912 70.5512 32.7816 71.3139 33.426C72.6587 34.5663 73.5218 35.9982 73.9282 37.7011C74.5806 40.4268 72.9046 43.3469 70.1497 44.385C67.8114 45.2646 65.6185 45.0805 63.6365 43.444C62.7433 42.7025 62.663 42.3139 63.1447 41.2553C63.4759 40.5291 63.787 39.7876 64.1834 39.1023C64.63 38.3353 64.9361 38.325 65.5985 38.908C65.8644 39.1433 66.1304 39.3836 66.4164 39.5882C66.8379 39.8899 67.2744 40.1456 67.7612 39.6904C68.278 39.2149 68.4687 38.5296 68.1576 37.9875C67.8666 37.4813 67.5053 37.0108 67.1691 36.5301C66.3311 35.3488 65.4178 34.2186 64.6651 32.9862C63.5261 31.1094 63.516 29.1252 64.635 27.2331C65.7139 25.4074 67.3447 24.4255 69.3469 24.4L69.3569 24.4051Z" fill="#2F2D2D"/>
<path d="M85.7755 36.6528C85.7755 38.4631 85.7755 40.2785 85.7755 42.0889C85.7755 42.319 85.7806 42.5542 85.7705 42.7843C85.7003 44.3032 85.344 44.6611 83.8336 44.6816C83.2315 44.6918 82.6193 44.6969 82.0272 44.6151C80.868 44.4515 80.5017 43.9912 80.5017 42.7997C80.4967 39.2609 80.4917 35.717 80.4816 32.1782C80.4816 31.6105 80.4515 31.0378 80.4716 30.4701C80.4967 29.8514 80.2257 29.5854 79.6236 29.5803C79.0616 29.5701 78.4995 29.5138 77.9426 29.4832C77.4809 29.4576 77.2099 29.2888 77.225 28.7519C77.2551 27.678 77.225 26.6041 77.2501 25.525C77.2702 24.6096 77.4207 24.4307 78.3089 24.4409C81.4702 24.4716 84.6365 24.5329 87.7978 24.5738C88.2393 24.579 88.43 24.7886 88.4451 25.2335C88.4752 26.0978 88.5404 26.9569 88.5655 27.8212C88.5956 28.7672 88.1942 29.253 87.2709 29.3246C85.2286 29.478 85.5899 29.3297 85.61 31.3395C85.62 32.2242 85.6752 33.1089 85.6902 33.9936C85.7053 34.8783 85.6902 35.763 85.6902 36.6477H85.7655L85.7755 36.6528Z" fill="#2F2D2D"/>
<path d="M92.8709 34.5715C92.8709 31.3651 92.8859 28.1638 92.8558 24.9574C92.8508 24.3488 93.0566 24.0625 93.6236 24.1187C94.9684 24.2568 96.3132 24.3949 97.648 24.6148C98.2953 24.717 98.3454 25.3102 98.3304 25.8625C98.2802 27.591 98.23 29.3195 98.1849 31.048C98.1146 33.6612 98.0444 36.2744 97.9741 38.8927C97.944 39.941 98.0494 40.0382 99.053 40.1609C99.8157 40.253 100.573 40.3859 101.331 40.5342C101.768 40.6212 101.998 40.8973 101.968 41.3934C101.903 42.3394 101.893 43.2906 101.823 44.2316C101.758 45.1111 101.271 45.51 100.277 45.4742C98.9275 45.418 97.5777 45.3157 96.2229 45.2492C95.3698 45.2083 94.5168 45.2032 93.6637 45.1521C92.8107 45.1009 92.7304 45.0242 92.7254 44.1855C92.7153 40.9791 92.7254 37.7779 92.7254 34.5715C92.7756 34.5715 92.8257 34.5715 92.8709 34.5715Z" fill="#2F2D2D"/>
<path d="M2.70879 13.7427C4.98693 13.7427 4.68083 13.9626 5.33316 11.8045C5.48872 11.2829 5.64427 10.7562 5.85503 10.255C6.06578 9.74874 6.43209 9.34474 7.0242 9.34986C7.60628 9.34986 8.01273 9.72828 8.21345 10.2397C8.52958 11.0579 8.77044 11.9119 9.03639 12.7506C9.36758 13.7887 9.36757 13.7836 10.4264 13.7478C11.0937 13.7273 11.7611 13.712 12.4235 13.712C13.1511 13.712 13.7934 13.8654 14.0794 14.6683C14.3353 15.3842 14.1798 15.8803 13.407 16.5246C12.7948 17.0309 12.1676 17.5218 11.5102 17.9667C10.9482 18.3503 10.8278 18.7747 11.0737 19.414C11.3898 20.2373 11.6307 21.0913 11.8765 21.9402C12.0873 22.6817 11.9066 23.1573 11.3095 23.592C10.7676 23.9909 10.2859 23.7965 9.82421 23.4488C9.08657 22.8965 8.34392 22.3544 7.62635 21.7817C7.26506 21.4953 6.98908 21.4237 6.59768 21.7612C5.86506 22.3851 5.08728 22.9527 4.31954 23.5306C3.83782 23.8937 3.32097 24.0522 2.76398 23.6738C2.24212 23.3158 2.01631 22.7789 2.21201 22.0681C2.488 21.076 2.78907 20.089 3.14535 19.1225C3.3009 18.698 3.29087 18.4423 2.9095 18.1662C2.1819 17.6394 1.45932 17.0974 0.791938 16.4939C0.465773 16.2024 0.169715 15.7882 0.0442673 15.374C-0.171504 14.6478 0.430648 13.9114 1.22348 13.8245C1.72025 13.7734 2.22205 13.7682 2.71882 13.7427H2.70879Z" fill="#FF0000"/>
<path d="M105.742 44.0475C105.742 41.6695 105.787 39.2864 105.727 36.9085C105.667 34.6175 105.456 32.3265 105.401 30.0355C105.371 28.8593 105.526 27.6831 105.621 26.5069C105.667 25.9393 106.028 25.6784 106.565 25.7398C107.93 25.8881 109.29 26.062 110.654 26.2307C111.166 26.2921 111.362 26.6194 111.342 27.1103C111.297 28.1229 111.211 29.1303 111.211 30.1428C111.216 32.2498 111.322 34.3567 111.292 36.4585C111.257 38.7341 111.126 41.0047 111.016 43.2804C110.981 43.9963 110.9 44.7071 110.83 45.418C110.775 45.9652 110.519 46.2669 109.927 46.2004C108.873 46.0828 107.809 46.0265 106.766 45.8578C105.712 45.6839 105.611 45.4998 105.621 44.431C105.621 44.3032 105.621 44.1804 105.621 44.0526C105.662 44.0526 105.702 44.0526 105.742 44.0526V44.0475Z" fill="#2F2D2D"/>
</svg>
