<svg xmlns="http://www.w3.org/2000/svg" width="41" height="28" viewBox="0 0 41 28" fill="none">
  <rect x="0.945531" y="0.695531" width="38.8589" height="26.6089" rx="7.30447" fill="white" stroke="#B9C6CE" stroke-width="1.39106"/>
  <path fill-rule="evenodd" clip-rule="evenodd" d="M20.5862 19.6315C19.1846 20.7957 17.3664 21.4986 15.3797 21.4986C10.9464 21.4986 7.35254 17.9989 7.35254 13.6819C7.35254 9.36488 10.9464 5.86523 15.3797 5.86523C17.3664 5.86523 19.1846 6.56807 20.5862 7.73232C21.9879 6.56807 23.806 5.86523 25.7928 5.86523C30.226 5.86523 33.8199 9.36488 33.8199 13.6819C33.8199 17.9989 30.226 21.4986 25.7928 21.4986C23.806 21.4986 21.9879 20.7957 20.5862 19.6315Z" fill="#FF4646"/>
  <path fill-rule="evenodd" clip-rule="evenodd" d="M20.5869 19.6311C22.3127 18.1974 23.407 16.0641 23.407 13.6819C23.407 11.2997 22.3127 9.16645 20.5869 7.73273C21.9887 6.56823 23.807 5.86523 25.7939 5.86523C30.2272 5.86523 33.8211 9.36488 33.8211 13.6819C33.8211 17.9989 30.2272 21.4986 25.7939 21.4986C23.807 21.4986 21.9887 20.7956 20.5869 19.6311Z" fill="#F9A000"/>
  <path fill-rule="evenodd" clip-rule="evenodd" d="M20.5872 19.6335C18.8611 18.1998 17.7666 16.0663 17.7666 13.6839C17.7666 11.3015 18.8611 9.1681 20.5872 7.73438C22.3133 9.1681 23.4078 11.3016 23.4078 13.684C23.4078 16.0664 22.3133 18.1998 20.5872 19.6335Z" fill="#F9A000"/>
</svg>
