<svg xmlns="http://www.w3.org/2000/svg" width="96" height="24" viewBox="0 0 96 24" fill="none">
  <g clip-path="url(#clip0_94_15620)">
    <path d="M73.9295 5.64258H68.6509C68.4763 5.64272 68.3075 5.70438 68.1748 5.81647C68.0422 5.92855 67.9544 6.08371 67.9273 6.25401L65.7921 19.607C65.7807 19.6699 65.7833 19.7345 65.7999 19.7962C65.8164 19.858 65.8464 19.9154 65.8877 19.9645C65.9291 20.0136 65.9808 20.0532 66.0393 20.0804C66.0978 20.1077 66.1616 20.122 66.2263 20.1224H68.9332C69.0556 20.1222 69.174 20.079 69.267 20.0004C69.3601 19.9218 69.4217 19.8131 69.4409 19.6937L70.0459 15.9057C70.0725 15.7352 70.1602 15.5797 70.2929 15.4676C70.4257 15.3554 70.5947 15.2939 70.7695 15.2942H72.4302C75.9081 15.2942 77.9152 13.631 78.4395 10.3396C78.6767 8.89885 78.4395 7.76266 77.7657 6.97554C77.0279 6.10408 75.697 5.64258 73.9295 5.64258ZM74.5297 10.5246C74.2427 12.3987 72.7955 12.3987 71.3958 12.3987H70.5986L71.1562 8.90353C71.1731 8.80133 71.2263 8.70842 71.3063 8.64145C71.3863 8.57448 71.4878 8.53784 71.5927 8.53808H71.958C72.907 8.53808 73.8085 8.53808 74.2735 9.07455C74.5606 9.39314 74.6436 9.86635 74.5297 10.5246Z" fill="#009ADE"/>
    <path d="M36.2813 5.64258H31.0027C30.8278 5.64264 30.6587 5.70422 30.5257 5.81627C30.3926 5.92832 30.3044 6.08351 30.2767 6.25401L28.1416 19.607C28.1312 19.6691 28.1347 19.7327 28.1518 19.7934C28.1688 19.854 28.1991 19.9103 28.2404 19.9582C28.2817 20.0062 28.3331 20.0446 28.391 20.071C28.4489 20.0973 28.512 20.1109 28.5757 20.1107H31.0952C31.2701 20.1106 31.4392 20.0491 31.5722 19.937C31.7053 19.825 31.7935 19.6698 31.8212 19.4993L32.3953 15.894C32.4229 15.7235 32.5112 15.5683 32.6442 15.4562C32.7773 15.3442 32.9464 15.2826 33.1213 15.2825H34.782C38.2576 15.2825 40.2646 13.6193 40.7889 10.3279C41.0262 8.88713 40.7889 7.75095 40.1152 6.96383C39.3773 6.10408 38.0464 5.64258 36.2813 5.64258ZM36.891 10.5246C36.6016 12.3987 35.1544 12.3987 33.7547 12.3987H32.9576L33.5175 8.90353C33.5339 8.80153 33.5866 8.70865 33.6662 8.64165C33.7458 8.57465 33.847 8.53792 33.9516 8.53808H34.317C35.2659 8.53808 36.1698 8.53808 36.6324 9.07455C36.91 9.39314 36.9954 9.86635 36.891 10.5246Z" fill="#002F87"/>
    <path d="M52.058 10.464H49.5314C49.4264 10.4639 49.3249 10.5009 49.2453 10.5684C49.1656 10.6359 49.1131 10.7293 49.0972 10.8318L48.9857 11.5345L48.8078 11.2815C48.2598 10.4968 47.0403 10.2344 45.8233 10.2344C43.031 10.2344 40.6443 12.324 40.1793 15.2546C39.9421 16.7164 40.2813 18.115 41.1283 19.0895C41.8993 19.9868 43.0001 20.3592 44.3121 20.3592C44.9627 20.3657 45.6079 20.2424 46.2092 19.9969C46.8105 19.7514 47.3554 19.3886 47.8114 18.9302L47.6975 19.633C47.688 19.6952 47.6921 19.7587 47.7096 19.8192C47.7272 19.8796 47.7577 19.9357 47.7991 19.9835C47.8405 20.0313 47.8919 20.0697 47.9497 20.0961C48.0075 20.1226 48.0703 20.1364 48.134 20.1367H50.4092C50.5838 20.1366 50.7526 20.0749 50.8852 19.9628C51.0179 19.8507 51.1057 19.6956 51.1328 19.5253L52.4993 10.9817C52.5121 10.9179 52.5103 10.8522 52.4939 10.7893C52.4775 10.7263 52.447 10.6679 52.4046 10.6181C52.3622 10.5684 52.3091 10.5288 52.2491 10.5021C52.1891 10.4754 52.1238 10.4624 52.058 10.464ZM48.535 15.3226C48.4367 15.9946 48.0931 16.6079 47.5687 17.0472C47.0444 17.4864 46.3755 17.7212 45.6881 17.7074C45.3719 17.7398 45.0525 17.6958 44.7574 17.5792C44.4624 17.4625 44.2004 17.2768 43.9943 17.0379C43.7881 16.799 43.6438 16.5142 43.574 16.2081C43.5041 15.9019 43.5107 15.5835 43.5932 15.2804C43.6894 14.6085 44.0298 13.9941 44.5511 13.5518C45.0723 13.1095 45.7387 12.8696 46.4259 12.8769C46.7406 12.8605 47.055 12.9132 47.3466 13.0311C47.6383 13.1489 47.8999 13.3291 48.1127 13.5586C48.3091 13.8044 48.4488 14.0897 48.5217 14.3944C48.5947 14.6991 48.5992 15.0159 48.535 15.3226Z" fill="#002F87"/>
    <path d="M89.7132 10.464H87.1794C87.0746 10.4644 86.9734 10.5016 86.8938 10.569C86.8143 10.6364 86.7616 10.7295 86.7453 10.8318L86.6338 11.5345L86.4582 11.2815C85.9102 10.4968 84.6907 10.2344 83.4713 10.2344C80.679 10.2344 78.2947 12.324 77.8297 15.2546C77.5925 16.7164 77.9317 18.115 78.7787 19.0895C79.5497 19.9868 80.6505 20.3592 81.9625 20.3592C82.613 20.3654 83.2582 20.2421 83.8595 19.9965C84.4607 19.751 85.0056 19.3884 85.4618 18.9302L85.3479 19.633C85.3376 19.6951 85.3411 19.7587 85.3581 19.8194C85.3752 19.88 85.4054 19.9363 85.4468 19.9842C85.4881 20.0322 85.5395 20.0706 85.5974 20.097C85.6553 20.1233 85.7183 20.1368 85.7821 20.1367H88.0525C88.225 20.1338 88.391 20.0709 88.5212 19.9591C88.6513 19.8472 88.7374 19.6936 88.7642 19.5253L90.1307 10.9817C90.1431 10.9199 90.1418 10.8562 90.1267 10.7949C90.1117 10.7337 90.0833 10.6765 90.0436 10.6272C90.0038 10.5779 89.9536 10.5377 89.8966 10.5096C89.8395 10.4814 89.7769 10.4658 89.7132 10.464ZM86.1901 15.3226C86.0919 15.9946 85.7482 16.6079 85.2239 17.0472C84.6995 17.4864 84.0307 17.7212 83.3432 17.7074C83.0273 17.7394 82.7081 17.6951 82.4134 17.5783C82.1186 17.4614 81.857 17.2756 81.6511 17.0368C81.4452 16.798 81.3012 16.5134 81.2315 16.2074C81.1617 15.9014 81.1683 15.5833 81.2507 15.2804C81.3469 14.6085 81.6874 13.9941 82.2086 13.5518C82.7298 13.1095 83.3962 12.8696 84.0834 12.8769C84.3977 12.8609 84.7117 12.9137 85.0029 13.0316C85.2941 13.1494 85.5553 13.3294 85.7678 13.5586C85.9639 13.8045 86.1029 14.09 86.1751 14.3948C86.2472 14.6996 86.2507 15.0163 86.1854 15.3226H86.1901Z" fill="#009ADE"/>
    <path d="M65.514 10.4629H62.9803C62.8604 10.463 62.7423 10.492 62.6364 10.5476C62.5305 10.6031 62.4401 10.6834 62.3729 10.7815L58.8712 15.8791L57.3861 10.9807C57.3403 10.8298 57.2462 10.6978 57.1178 10.6044C56.9894 10.5111 56.8338 10.4614 56.6744 10.4629H54.1833C54.1132 10.463 54.044 10.4795 53.9816 10.5112C53.9192 10.5429 53.8654 10.5888 53.8246 10.6451C53.7838 10.7015 53.7571 10.7666 53.7469 10.8352C53.7367 10.9037 53.7431 10.9737 53.7658 11.0392L56.5652 19.1471L53.9318 22.8133C53.8854 22.8786 53.8579 22.9551 53.8525 23.0347C53.8471 23.1143 53.8639 23.1938 53.9011 23.2646C53.9383 23.3354 53.9945 23.3948 54.0635 23.4362C54.1325 23.4777 54.2117 23.4997 54.2925 23.4997H56.8309C56.9493 23.4993 57.0659 23.4708 57.1708 23.4166C57.2757 23.3624 57.3658 23.284 57.4335 23.1881L65.8817 11.1493C65.9286 11.0836 65.9561 11.0064 65.9612 10.9262C65.9664 10.846 65.9489 10.7659 65.9109 10.6949C65.8728 10.6238 65.8156 10.5646 65.7456 10.5236C65.6755 10.4827 65.5954 10.4617 65.514 10.4629Z" fill="#002F87"/>
    <path d="M92.6881 6.01037L90.5197 19.6211C90.5101 19.6832 90.5142 19.7466 90.5318 19.8069C90.5493 19.8673 90.5799 19.9232 90.6213 19.9708C90.6628 20.0184 90.7142 20.0566 90.772 20.0827C90.8298 20.1089 90.8926 20.1225 90.9562 20.1224H93.1341C93.3087 20.1223 93.4775 20.0606 93.6101 19.9485C93.7428 19.8364 93.8305 19.6813 93.8577 19.511L95.9928 6.14625C96.0032 6.08414 95.9997 6.02054 95.9826 5.95989C95.9655 5.89925 95.9353 5.843 95.894 5.79506C95.8527 5.74713 95.8013 5.70865 95.7434 5.68232C95.6855 5.65599 95.6224 5.64243 95.5587 5.64258H93.1222C93.0173 5.64251 92.9158 5.67957 92.8361 5.74704C92.7565 5.81452 92.7039 5.90794 92.6881 6.01037Z" fill="#009ADE"/>
    <path d="M17.7888 6.34254C18.0735 4.55276 17.7888 3.33693 16.8067 2.23355C15.7272 1.02006 13.7771 0.5 11.2837 0.5H4.04541C3.7989 0.499813 3.56043 0.586565 3.37295 0.744623C3.18548 0.902681 3.06134 1.12165 3.02289 1.36209L0.00754971 20.2367C-0.0053877 20.3239 0.000819818 20.4127 0.0257548 20.4973C0.0506898 20.5819 0.0937665 20.6601 0.152058 20.7268C0.210349 20.7935 0.28249 20.847 0.363579 20.8837C0.444668 20.9204 0.532806 20.9394 0.622006 20.9395H5.08927L4.78086 22.8722C4.7689 22.9489 4.77386 23.0273 4.79542 23.1019C4.81698 23.1766 4.85461 23.2457 4.90576 23.3047C4.9569 23.3636 5.02034 23.411 5.09173 23.4435C5.16313 23.476 5.24079 23.4929 5.3194 23.493H9.0868C9.30273 23.4927 9.51148 23.4164 9.67545 23.2777C9.83943 23.1389 9.94785 22.947 9.9812 22.7363L10.0168 22.5465L10.7285 18.0955L10.7736 17.8496C10.8069 17.6389 10.9154 17.4469 11.0793 17.3082C11.2433 17.1695 11.4521 17.0931 11.668 17.0929H12.2326C15.8814 17.0929 18.7378 15.6287 19.5729 11.3956C19.9216 9.6269 19.7413 8.14871 18.8185 7.11092C18.527 6.78909 18.178 6.52305 17.7888 6.32614" fill="#009ADE"/>
    <path d="M17.7888 6.34254C18.0735 4.55276 17.7888 3.33693 16.8067 2.23355C15.7272 1.02006 13.7771 0.5 11.2837 0.5H4.04541C3.7989 0.499813 3.56043 0.586565 3.37295 0.744623C3.18548 0.902681 3.06134 1.12165 3.02289 1.36209L0.00754971 20.2367C-0.0053877 20.3239 0.000819818 20.4127 0.0257548 20.4973C0.0506898 20.5819 0.0937665 20.6601 0.152058 20.7268C0.210349 20.7935 0.28249 20.847 0.363579 20.8837C0.444668 20.9204 0.532806 20.9394 0.622006 20.9395H5.08927L6.2138 13.9116L6.17822 14.1318C6.21563 13.8911 6.33907 13.6716 6.5262 13.5131C6.71333 13.3545 6.95177 13.2673 7.19836 13.2674H9.32167C13.4924 13.2674 16.7592 11.5947 17.7153 6.75483C17.7414 6.61193 17.7675 6.47138 17.7888 6.33551" fill="#002169"/>
    <path d="M7.41899 6.36596C7.45193 6.15532 7.56032 5.96335 7.72445 5.82492C7.88858 5.6865 8.09755 5.61081 8.31339 5.61163H13.9882C14.6148 5.60694 15.2407 5.65159 15.8601 5.74516C16.0238 5.77093 16.1827 5.80139 16.3346 5.83653C16.4864 5.87167 16.6382 5.9068 16.7853 5.94897L16.9988 6.01456C17.2692 6.10264 17.5318 6.21233 17.7841 6.34254C18.0688 4.55276 17.7841 3.33693 16.8019 2.23355C15.7225 1.02006 13.7723 0.5 11.2789 0.5H4.04541C3.7989 0.499813 3.56043 0.586565 3.37295 0.744623C3.18548 0.902681 3.06134 1.12165 3.02289 1.36209L0.00754971 20.2367C-0.0053877 20.3239 0.000819818 20.4127 0.0257548 20.4973C0.0506898 20.5819 0.0937665 20.6601 0.152058 20.7268C0.210349 20.7935 0.28249 20.847 0.363579 20.8837C0.444668 20.9204 0.532806 20.9394 0.622006 20.9395H5.08927L6.2138 13.9116L7.41899 6.36596Z" fill="#002F87"/>
  </g>
  <defs>
    <clipPath id="clip0_94_15620">
      <rect width="96" height="23" fill="white" transform="translate(0 0.5)"/>
    </clipPath>
  </defs>
</svg>
