<svg xmlns="http://www.w3.org/2000/svg" width="26" height="23" viewBox="0 0 26 23" fill="none">
<path d="M13 18.375C14.5625 18.375 15.8906 17.8281 16.9844 16.7344C18.0781 15.6406 18.625 14.3125 18.625 12.75C18.625 11.1875 18.0781 9.85938 16.9844 8.76562C15.8906 7.67188 14.5625 7.125 13 7.125C11.4375 7.125 10.1094 7.67188 9.01562 8.76562C7.92188 9.85938 7.375 11.1875 7.375 12.75C7.375 14.3125 7.92188 15.6406 9.01562 16.7344C10.1094 17.8281 11.4375 18.375 13 18.375ZM13 15.875C12.125 15.875 11.3854 15.5729 10.7812 14.9688C10.1771 14.3646 9.875 13.625 9.875 12.75C9.875 11.875 10.1771 11.1354 10.7812 10.5312C11.3854 9.92708 12.125 9.625 13 9.625C13.875 9.625 14.6146 9.92708 15.2188 10.5312C15.8229 11.1354 16.125 11.875 16.125 12.75C16.125 13.625 15.8229 14.3646 15.2188 14.9688C14.6146 15.5729 13.875 15.875 13 15.875ZM3 22.75C2.3125 22.75 1.72396 22.5052 1.23438 22.0156C0.744792 21.526 0.5 20.9375 0.5 20.25V5.25C0.5 4.5625 0.744792 3.97396 1.23438 3.48438C1.72396 2.99479 2.3125 2.75 3 2.75H6.9375L9.25 0.25H16.75L19.0625 2.75H23C23.6875 2.75 24.276 2.99479 24.7656 3.48438C25.2552 3.97396 25.5 4.5625 25.5 5.25V20.25C25.5 20.9375 25.2552 21.526 24.7656 22.0156C24.276 22.5052 23.6875 22.75 23 22.75H3ZM23 20.25V5.25H17.9375L15.6562 2.75H10.3438L8.0625 5.25H3V20.25H23Z" fill="#FDD51E"/>
</svg>