<svg width="134" height="133" viewBox="0 0 134 133" fill="none" xmlns="http://www.w3.org/2000/svg">
<g id="play_circle">
<mask id="mask0_93_5493" style="mask-type:alpha" maskUnits="userSpaceOnUse" x="0" y="0" width="134" height="133">
<rect id="Bounding box" x="0.909668" y="0.410156" width="132.181" height="132.181" fill="#D9D9D9"/>
</mask>
<g mask="url(#mask0_93_5493)">
<path id="play_circle_2" d="M53.2313 91.284L91.784 66.5001L53.2313 41.7162V91.284ZM67.0001 121.575C59.3813 121.575 52.2215 120.13 45.5207 117.238C38.8199 114.347 32.9911 110.423 28.0343 105.466C23.0775 100.509 19.1534 94.6803 16.262 87.9794C13.3705 81.2786 11.9248 74.1188 11.9248 66.5001C11.9248 58.8813 13.3705 51.7215 16.262 45.0207C19.1534 38.3199 23.0775 32.4911 28.0343 27.5343C32.9911 22.5775 38.8199 18.6534 45.5207 15.762C52.2215 12.8705 59.3813 11.4248 67.0001 11.4248C74.6188 11.4248 81.7786 12.8705 88.4794 15.762C95.1803 18.6534 101.009 22.5775 105.966 27.5343C110.923 32.4911 114.847 38.3199 117.738 45.0207C120.63 51.7215 122.075 58.8813 122.075 66.5001C122.075 74.1188 120.63 81.2786 117.738 87.9794C114.847 94.6803 110.923 100.509 105.966 105.466C101.009 110.423 95.1803 114.347 88.4794 117.238C81.7786 120.13 74.6188 121.575 67.0001 121.575ZM67.0001 110.56C79.3002 110.56 89.7186 106.292 98.2553 97.7553C106.792 89.2186 111.06 78.8002 111.06 66.5001C111.06 54.1999 106.792 43.7815 98.2553 35.2449C89.7186 26.7082 79.3002 22.4399 67.0001 22.4399C54.6999 22.4399 44.2815 26.7082 35.7449 35.2449C27.2082 43.7815 22.9399 54.1999 22.9399 66.5001C22.9399 78.8002 27.2082 89.2186 35.7449 97.7553C44.2815 106.292 54.6999 110.56 67.0001 110.56Z" fill="white"/>
</g>
</g>
</svg>
