<svg width="17" height="18" viewBox="0 0 17 18" fill="none" xmlns="http://www.w3.org/2000/svg">
<circle cx="8.5" cy="8.79688" r="8.5" fill="#848484"/>
<path d="M9.00971 11.1258H7.68727C7.69122 10.7362 7.72285 10.4095 7.78215 10.1456C7.84145 9.87746 7.94029 9.6345 8.07866 9.41667C8.22099 9.19883 8.40878 8.96844 8.64203 8.72547C8.82389 8.54115 8.98796 8.36731 9.13424 8.20393C9.28052 8.03637 9.39715 7.86043 9.48413 7.67611C9.5711 7.4876 9.61459 7.27186 9.61459 7.0289C9.61459 6.76499 9.57308 6.54087 9.49006 6.35655C9.40703 6.17223 9.28447 6.0319 9.12238 5.93555C8.96424 5.8392 8.76657 5.79103 8.52936 5.79103C8.33168 5.79103 8.14587 5.83292 7.97192 5.9167C7.79796 5.99629 7.65761 6.12196 7.55087 6.29372C7.44413 6.46128 7.3868 6.6833 7.37889 6.95978H5.94971C5.95761 6.43196 6.07622 5.98791 6.30552 5.62765C6.53482 5.26739 6.8432 4.9972 7.23064 4.81707C7.61808 4.63694 8.05099 4.54688 8.52936 4.54688C9.05913 4.54688 9.5118 4.64322 9.88738 4.83592C10.263 5.02443 10.5496 5.30091 10.7473 5.66536C10.9489 6.02562 11.0497 6.46128 11.0497 6.97235C11.0497 7.34098 10.9805 7.67611 10.8421 7.97772C10.7038 8.27515 10.5239 8.55372 10.3025 8.81344C10.0811 9.06897 9.84192 9.32451 9.58494 9.58004C9.36354 9.79368 9.21331 10.0262 9.13424 10.2775C9.05517 10.5247 9.01366 10.8074 9.00971 11.1258ZM7.56866 13.0863C7.56866 12.8601 7.6418 12.6695 7.78808 12.5145C7.93436 12.3553 8.13401 12.2757 8.38703 12.2757C8.64006 12.2757 8.83971 12.3553 8.98599 12.5145C9.13227 12.6695 9.2054 12.8601 9.2054 13.0863C9.2054 13.3125 9.13227 13.5052 8.98599 13.6644C8.83971 13.8194 8.64006 13.8969 8.38703 13.8969C8.13401 13.8969 7.93436 13.8194 7.78808 13.6644C7.6418 13.5052 7.56866 13.3125 7.56866 13.0863Z" fill="white"/>
</svg>
