<svg width="20" height="20" viewBox="0 0 20 20" fill="none" xmlns="http://www.w3.org/2000/svg">
<g id="schedule">
<mask id="mask0_518_2085" style="mask-type:alpha" maskUnits="userSpaceOnUse" x="0" y="0" width="20" height="20">
<rect id="Bounding box" width="20" height="20" fill="#D9D9D9"/>
</mask>
<g mask="url(#mask0_518_2085)">
<path id="schedule_2" d="M12.75 13.9166L13.9167 12.75L10.8333 9.66663V5.83329H9.16667V10.3333L12.75 13.9166ZM10 18.3333C8.84723 18.3333 7.76389 18.1145 6.75 17.677C5.73612 17.2395 4.85417 16.6458 4.10417 15.8958C3.35417 15.1458 2.76042 14.2638 2.32292 13.25C1.88542 12.2361 1.66667 11.1527 1.66667 9.99996C1.66667 8.84718 1.88542 7.76385 2.32292 6.74996C2.76042 5.73607 3.35417 4.85413 4.10417 4.10413C4.85417 3.35413 5.73612 2.76038 6.75 2.32288C7.76389 1.88538 8.84723 1.66663 10 1.66663C11.1528 1.66663 12.2361 1.88538 13.25 2.32288C14.2639 2.76038 15.1458 3.35413 15.8958 4.10413C16.6458 4.85413 17.2396 5.73607 17.6771 6.74996C18.1146 7.76385 18.3333 8.84718 18.3333 9.99996C18.3333 11.1527 18.1146 12.2361 17.6771 13.25C17.2396 14.2638 16.6458 15.1458 15.8958 15.8958C15.1458 16.6458 14.2639 17.2395 13.25 17.677C12.2361 18.1145 11.1528 18.3333 10 18.3333ZM10 16.6666C11.8472 16.6666 13.4201 16.0173 14.7188 14.7187C16.0174 13.4201 16.6667 11.8472 16.6667 9.99996C16.6667 8.15274 16.0174 6.57982 14.7188 5.28121C13.4201 3.9826 11.8472 3.33329 10 3.33329C8.15278 3.33329 6.57987 3.9826 5.28126 5.28121C3.98264 6.57982 3.33334 8.15274 3.33334 9.99996C3.33334 11.8472 3.98264 13.4201 5.28126 14.7187C6.57987 16.0173 8.15278 16.6666 10 16.6666Z" fill="white"/>
</g>
</g>
</svg>
