<svg width="20" height="20" viewBox="0 0 20 20" fill="none" xmlns="http://www.w3.org/2000/svg">
<g id="share">
<mask id="mask0_704_1495" style="mask-type:alpha" maskUnits="userSpaceOnUse" x="0" y="0" width="20" height="20">
<rect id="Bounding box" width="20" height="20" fill="#D9D9D9"/>
</mask>
<g mask="url(#mask0_704_1495)">
<path id="share_2" d="M15 18.3332C14.3056 18.3332 13.7153 18.0901 13.2292 17.604C12.7431 17.1179 12.5 16.5276 12.5 15.8332C12.5 15.7359 12.5069 15.6353 12.5208 15.5311C12.5347 15.4269 12.5556 15.3332 12.5833 15.2498L6.70833 11.8332C6.47222 12.0415 6.20833 12.2047 5.91667 12.3228C5.625 12.4408 5.31944 12.4998 5 12.4998C4.30556 12.4998 3.71528 12.2568 3.22917 11.7707C2.74306 11.2846 2.5 10.6943 2.5 9.99984C2.5 9.30539 2.74306 8.71512 3.22917 8.229C3.71528 7.74289 4.30556 7.49984 5 7.49984C5.31944 7.49984 5.625 7.55887 5.91667 7.67692C6.20833 7.79498 6.47222 7.95817 6.70833 8.1665L12.5833 4.74984C12.5556 4.6665 12.5347 4.57275 12.5208 4.46859C12.5069 4.36442 12.5 4.26373 12.5 4.1665C12.5 3.47206 12.7431 2.88178 13.2292 2.39567C13.7153 1.90956 14.3056 1.6665 15 1.6665C15.6944 1.6665 16.2847 1.90956 16.7708 2.39567C17.2569 2.88178 17.5 3.47206 17.5 4.1665C17.5 4.86095 17.2569 5.45123 16.7708 5.93734C16.2847 6.42345 15.6944 6.6665 15 6.6665C14.6806 6.6665 14.375 6.60748 14.0833 6.48942C13.7917 6.37136 13.5278 6.20817 13.2917 5.99984L7.41667 9.4165C7.44444 9.49984 7.46528 9.59359 7.47917 9.69775C7.49306 9.80192 7.5 9.90261 7.5 9.99984C7.5 10.0971 7.49306 10.1978 7.47917 10.3019C7.46528 10.4061 7.44444 10.4998 7.41667 10.5832L13.2917 13.9998C13.5278 13.7915 13.7917 13.6283 14.0833 13.5103C14.375 13.3922 14.6806 13.3332 15 13.3332C15.6944 13.3332 16.2847 13.5762 16.7708 14.0623C17.2569 14.5484 17.5 15.1387 17.5 15.8332C17.5 16.5276 17.2569 17.1179 16.7708 17.604C16.2847 18.0901 15.6944 18.3332 15 18.3332ZM15 4.99984C15.2361 4.99984 15.434 4.91998 15.5938 4.76025C15.7535 4.60053 15.8333 4.40261 15.8333 4.1665C15.8333 3.93039 15.7535 3.73248 15.5938 3.57275C15.434 3.41303 15.2361 3.33317 15 3.33317C14.7639 3.33317 14.566 3.41303 14.4062 3.57275C14.2465 3.73248 14.1667 3.93039 14.1667 4.1665C14.1667 4.40261 14.2465 4.60053 14.4062 4.76025C14.566 4.91998 14.7639 4.99984 15 4.99984ZM5 10.8332C5.23611 10.8332 5.43403 10.7533 5.59375 10.5936C5.75347 10.4339 5.83333 10.2359 5.83333 9.99984C5.83333 9.76373 5.75347 9.56581 5.59375 9.40609C5.43403 9.24637 5.23611 9.1665 5 9.1665C4.76389 9.1665 4.56597 9.24637 4.40625 9.40609C4.24653 9.56581 4.16667 9.76373 4.16667 9.99984C4.16667 10.2359 4.24653 10.4339 4.40625 10.5936C4.56597 10.7533 4.76389 10.8332 5 10.8332ZM15 16.6665C15.2361 16.6665 15.434 16.5866 15.5938 16.4269C15.7535 16.2672 15.8333 16.0693 15.8333 15.8332C15.8333 15.5971 15.7535 15.3991 15.5938 15.2394C15.434 15.0797 15.2361 14.9998 15 14.9998C14.7639 14.9998 14.566 15.0797 14.4062 15.2394C14.2465 15.3991 14.1667 15.5971 14.1667 15.8332C14.1667 16.0693 14.2465 16.2672 14.4062 16.4269C14.566 16.5866 14.7639 16.6665 15 16.6665Z" fill="white"/>
</g>
</g>
</svg>
