<svg width="20" height="26" viewBox="0 0 20 26" fill="transparent" xmlns="http://www.w3.org/2000/svg">
<path d="M2.5 25.5C1.8125 25.5 1.22396 25.2552 0.734375 24.7656C0.244792 24.276 0 23.6875 0 23V8C0 7.3125 0.244792 6.72396 0.734375 6.23438C1.22396 5.74479 1.8125 5.5 2.5 5.5H5C5 4.125 5.48958 2.94792 6.46875 1.96875C7.44792 0.989583 8.625 0.5 10 0.5C11.375 0.5 12.5521 0.989583 13.5312 1.96875C14.5104 2.94792 15 4.125 15 5.5H17.5C18.1875 5.5 18.776 5.74479 19.2656 6.23438C19.7552 6.72396 20 7.3125 20 8V23C20 23.6875 19.7552 24.276 19.2656 24.7656C18.776 25.2552 18.1875 25.5 17.5 25.5H2.5ZM2.5 23H17.5V8H15V10.5C15 10.8542 14.8802 11.151 14.6406 11.3906C14.401 11.6302 14.1042 11.75 13.75 11.75C13.3958 11.75 13.099 11.6302 12.8594 11.3906C12.6198 11.151 12.5 10.8542 12.5 10.5V8H7.5V10.5C7.5 10.8542 7.38021 11.151 7.14062 11.3906C6.90104 11.6302 6.60417 11.75 6.25 11.75C5.89583 11.75 5.59896 11.6302 5.35938 11.3906C5.11979 11.151 5 10.8542 5 10.5V8H2.5V23ZM7.5 5.5H12.5C12.5 4.8125 12.2552 4.22396 11.7656 3.73438C11.276 3.24479 10.6875 3 10 3C9.3125 3 8.72396 3.24479 8.23438 3.73438C7.74479 4.22396 7.5 4.8125 7.5 5.5Z" fill="white"/>
</svg>
