<svg width="21" height="20" viewBox="0 0 21 20" fill="none" xmlns="http://www.w3.org/2000/svg">
<g id="shopping_cart">
<mask id="mask0_704_3316" style="mask-type:alpha" maskUnits="userSpaceOnUse" x="0" y="0" width="21" height="20">
<rect id="Bounding box" x="0.5" width="20" height="20" fill="#D9D9D9"/>
</mask>
<g mask="url(#mask0_704_3316)">
<path id="shopping_cart_2" d="M6.3335 18.3332C5.87516 18.3332 5.4828 18.17 5.15641 17.8436C4.83002 17.5172 4.66683 17.1248 4.66683 16.6665C4.66683 16.2082 4.83002 15.8158 5.15641 15.4894C5.4828 15.163 5.87516 14.9998 6.3335 14.9998C6.79183 14.9998 7.18419 15.163 7.51058 15.4894C7.83697 15.8158 8.00016 16.2082 8.00016 16.6665C8.00016 17.1248 7.83697 17.5172 7.51058 17.8436C7.18419 18.17 6.79183 18.3332 6.3335 18.3332ZM14.6668 18.3332C14.2085 18.3332 13.8161 18.17 13.4897 17.8436C13.1634 17.5172 13.0002 17.1248 13.0002 16.6665C13.0002 16.2082 13.1634 15.8158 13.4897 15.4894C13.8161 15.163 14.2085 14.9998 14.6668 14.9998C15.1252 14.9998 15.5175 15.163 15.8439 15.4894C16.1703 15.8158 16.3335 16.2082 16.3335 16.6665C16.3335 17.1248 16.1703 17.5172 15.8439 17.8436C15.5175 18.17 15.1252 18.3332 14.6668 18.3332ZM4.8335 3.33317H17.1252C17.4446 3.33317 17.6877 3.47553 17.8543 3.76025C18.021 4.04498 18.0279 4.33317 17.8752 4.62484L14.9168 9.95817C14.7641 10.2359 14.5592 10.4512 14.3022 10.604C14.0453 10.7568 13.7641 10.8332 13.4585 10.8332H7.25016L6.3335 12.4998H16.3335V14.1665H6.3335C5.7085 14.1665 5.23627 13.8922 4.91683 13.3436C4.59739 12.795 4.5835 12.2498 4.87516 11.7082L6.00016 9.6665L3.00016 3.33317H1.3335V1.6665H4.04183L4.8335 3.33317Z" fill="white"/>
</g>
</g>
</svg>
