<svg width="30" height="30" viewBox="0 0 30 30" fill="none" xmlns="http://www.w3.org/2000/svg">
<g id="sound_sampler">
<mask id="mask0_518_2960" style="mask-type:alpha" maskUnits="userSpaceOnUse" x="0" y="0" width="30" height="30">
<rect id="Bounding box" width="30" height="30" fill="#D9D9D9"/>
</mask>
<g mask="url(#mask0_518_2960)">
<path id="sound_sampler_2" d="M5.28125 22.9062C4.40625 21.8229 3.72396 20.6094 3.23438 19.2656C2.74479 17.9219 2.5 16.5 2.5 15C2.5 11.7292 3.57813 8.91667 5.73438 6.5625C7.89062 4.20833 10.5625 2.875 13.75 2.5625V5.0625C11.25 5.35417 9.16667 6.4375 7.5 8.3125C5.83333 10.1875 5 12.4167 5 15C5 16.1667 5.17708 17.2656 5.53125 18.2969C5.88542 19.3281 6.39583 20.2708 7.0625 21.125L5.28125 22.9062ZM15 27.5C13.4792 27.5 12.0417 27.25 10.6875 26.75C9.33333 26.25 8.11458 25.5521 7.03125 24.6563L8.78125 22.875C9.63542 23.5417 10.5885 24.0625 11.6406 24.4375C12.6927 24.8125 13.8125 25 15 25C16.1875 25 17.3073 24.8125 18.3594 24.4375C19.4115 24.0625 20.3646 23.5417 21.2188 22.875L22.9688 24.6563C21.8854 25.5521 20.6667 26.25 19.3125 26.75C17.9583 27.25 16.5208 27.5 15 27.5ZM24.7188 22.9062L22.9375 21.125C23.6042 20.2708 24.1146 19.3281 24.4688 18.2969C24.8229 17.2656 25 16.1667 25 15C25 12.4167 24.1667 10.1875 22.5 8.3125C20.8333 6.4375 18.75 5.35417 16.25 5.0625V2.5625C19.4375 2.875 22.1094 4.20833 24.2656 6.5625C26.4219 8.91667 27.5 11.7292 27.5 15C27.5 16.5 27.2552 17.9219 26.7656 19.2656C26.276 20.6094 25.5938 21.8229 24.7188 22.9062ZM11.875 20.625V9.375L20.625 15L11.875 20.625Z" fill="#FDD51E"/>
</g>
</g>
</svg>
