<svg width="30" height="30" viewBox="0 0 30 30" fill="none" xmlns="http://www.w3.org/2000/svg">
<g id="temp_preferences_custom">
<mask id="mask0_518_719" style="mask-type:alpha" maskUnits="userSpaceOnUse" x="0" y="0" width="30" height="30">
<rect id="Bounding box" width="30" height="30" fill="#D9D9D9"/>
</mask>
<g mask="url(#mask0_518_719)">
<path id="temp_preferences_custom_2" d="M23.75 11.25L22.1875 7.8125L18.75 6.25L22.1875 4.6875L23.75 1.25L25.3125 4.6875L28.75 6.25L25.3125 7.8125L23.75 11.25ZM23.75 28.75L22.1875 25.3125L18.75 23.75L22.1875 22.1875L23.75 18.75L25.3125 22.1875L28.75 23.75L25.3125 25.3125L23.75 28.75ZM11.25 25L8.125 18.125L1.25 15L8.125 11.875L11.25 5L14.375 11.875L21.25 15L14.375 18.125L11.25 25ZM11.25 18.9375L12.5 16.25L15.1875 15L12.5 13.75L11.25 11.0625L10 13.75L7.3125 15L10 16.25L11.25 18.9375Z" fill="#FDD51E"/>
</g>
</g>
</svg>
