<svg width="20" height="20" viewBox="0 0 20 20" fill="none" xmlns="http://www.w3.org/2000/svg">
<g id="thumb_up">
<mask id="mask0_759_2231" style="mask-type:alpha" maskUnits="userSpaceOnUse" x="0" y="0" width="20" height="20">
<rect id="Bounding box" width="20" height="20" fill="#D9D9D9"/>
</mask>
<g mask="url(#mask0_759_2231)">
<path id="thumb_up_2" d="M14.9998 17.5002H6.6665V6.66683L12.4998 0.833496L13.5415 1.87516C13.6387 1.97238 13.7186 2.10433 13.7811 2.271C13.8436 2.43766 13.8748 2.59738 13.8748 2.75016V3.04183L12.9582 6.66683H17.4998C17.9443 6.66683 18.3332 6.8335 18.6665 7.16683C18.9998 7.50016 19.1665 7.88905 19.1665 8.3335V10.0002C19.1665 10.0974 19.1561 10.2016 19.1353 10.3127C19.1144 10.4238 19.0832 10.5279 19.0415 10.6252L16.5415 16.5002C16.4165 16.7779 16.2082 17.0141 15.9165 17.2085C15.6248 17.4029 15.3193 17.5002 14.9998 17.5002ZM4.99984 6.66683V17.5002H1.6665V6.66683H4.99984Z" fill="white"/>
</g>
</g>
</svg>
