<svg width="20" height="20" viewBox="0 0 20 20" fill="none" xmlns="http://www.w3.org/2000/svg">
<g id="thumb_down">
<mask id="mask0_759_2251" style="mask-type:alpha" maskUnits="userSpaceOnUse" x="0" y="0" width="20" height="20">
<rect id="Bounding box" width="20" height="20" fill="#D9D9D9"/>
</mask>
<g mask="url(#mask0_759_2251)">
<path id="thumb_down_2" d="M5.00016 2.5H13.3335V13.3333L7.50016 19.1667L6.4585 18.125C6.36127 18.0278 6.28141 17.8958 6.21891 17.7292C6.15641 17.5625 6.12516 17.4028 6.12516 17.25V16.9583L7.04183 13.3333H2.50016C2.05572 13.3333 1.66683 13.1667 1.3335 12.8333C1.00016 12.5 0.833496 12.1111 0.833496 11.6667V10C0.833496 9.90278 0.843913 9.79861 0.864746 9.6875C0.885579 9.57639 0.916829 9.47222 0.958496 9.375L3.4585 3.5C3.5835 3.22222 3.79183 2.98611 4.0835 2.79167C4.37516 2.59722 4.68072 2.5 5.00016 2.5ZM15.0002 13.3333V2.5H18.3335V13.3333H15.0002Z" fill="white"/>
</g>
</g>
</svg>
