<svg xmlns="http://www.w3.org/2000/svg" width="160" height="160" viewBox="0 0 160 160" fill="none">
<g clip-path="url(#clip0_94_15783)">
<path d="M135.763 94.425C127.882 94.425 120.887 100.799 120.139 108.66C119.391 116.522 125.172 122.896 133.052 122.896C140.933 122.896 147.928 116.522 148.677 108.66C149.425 100.798 143.643 94.425 135.763 94.425ZM141.852 108.66C141.462 112.762 137.812 116.087 133.7 116.087C129.588 116.087 126.573 112.761 126.963 108.66C127.353 104.56 131.003 101.234 135.115 101.234C139.227 101.234 142.243 104.559 141.852 108.66ZM159.488 72.9904L148.942 57.5546C147.938 56.0864 146.261 55.227 144.398 55.227H127.294L128.351 44.1236C128.668 40.7971 126.223 38.1035 122.89 38.1035H33.2166C29.8818 38.1035 26.9253 40.799 26.6087 44.1236L26.4021 46.2904H12.71C11.8964 46.2901 11.1115 46.5904 10.5068 47.1333C9.90207 47.6763 9.52036 48.4234 9.43531 49.2305C9.35027 50.0377 9.56791 50.8477 10.0463 51.5042C10.5246 52.1607 11.2297 52.6172 12.0256 52.7856H56.9335C57.8305 52.7877 58.6902 53.1441 59.3245 53.7768C59.9587 54.4095 60.316 55.2671 60.3181 56.1619C60.3159 57.0566 59.9586 57.9141 59.3243 58.5468C58.6901 59.1794 57.8305 59.5359 56.9335 59.5381H15.888C15.0543 59.6367 14.2898 60.0495 13.7512 60.6919C13.2125 61.3343 12.9403 62.1578 12.9904 62.9939C13.0404 63.8299 13.4089 64.6152 14.0204 65.1891C14.6319 65.763 15.4402 66.0821 16.2798 66.081H24.5187L40.1435 66.1232C41.0166 66.1232 41.854 66.4692 42.4713 67.0851C43.0887 67.7009 43.4355 68.5362 43.4355 69.4071C43.4355 70.278 43.0887 71.1133 42.4713 71.7292C41.854 72.345 41.0166 72.691 40.1435 72.691H23.8891L23.8851 72.7327H2.85841C1.98531 72.7327 1.14798 73.0787 0.530611 73.6945C-0.0867594 74.3104 -0.433594 75.1456 -0.433594 76.0166C-0.433594 76.8875 -0.0867594 77.7228 0.530611 78.3386C1.14798 78.9545 1.98531 79.3004 2.85841 79.3004H23.2585V79.3144H35.6371C36.5102 79.3144 37.3475 79.6603 37.9649 80.2762C38.5822 80.892 38.9291 81.7273 38.9291 82.5982C38.9291 83.4692 38.5822 84.3044 37.9649 84.9203C37.3475 85.5361 36.5102 85.8821 35.6371 85.8821H22.6333L21.0376 102.644C20.721 105.971 23.1659 108.664 26.4987 108.664H29.7698C30.6796 99.1085 39.2123 91.3362 48.7906 91.3362C58.369 91.3362 65.4209 99.11 64.5115 108.664H117.037C117.947 99.1085 126.479 91.3362 136.058 91.3362C145.636 91.3362 152.678 99.1 151.779 108.647C154.924 108.417 157.633 105.817 157.935 102.646L160.406 76.6883C160.533 75.3458 160.211 74.045 159.488 72.9904ZM126.687 76.4436L128.236 60.1786H142.482C143.202 60.1786 143.837 60.5033 144.224 61.0723L154.726 76.4456L126.687 76.4436ZM48.4985 94.425C40.6179 94.425 33.6227 100.799 32.8741 108.66C32.1256 116.522 37.9072 122.896 45.7878 122.896C53.6684 122.896 60.6635 116.522 61.4116 108.66C62.1597 100.798 56.3766 94.425 48.496 94.425H48.4985ZM54.5877 108.66C54.197 112.762 50.5476 116.087 46.4359 116.087C42.3241 116.087 39.3078 112.761 39.6986 108.66C40.0893 104.56 43.7362 101.234 47.8464 101.234C51.9567 101.234 54.9754 104.559 54.5852 108.66H54.5877Z" fill="#121212"/>
<path d="M91.4259 68.3652H91.388L91.4089 68.3332L91.4259 68.3652Z" fill="white"/>
<path d="M91.4259 68.3652H91.388L91.4089 68.3332L91.4259 68.3652Z" fill="white"/>
<path d="M102.011 49.9921C101.778 49.9921 101.564 50.1116 101.442 50.3095L92.1907 65.6709C91.8398 66.2552 90.9878 66.2515 90.6406 65.6653L81.556 50.3375L81.5467 50.3207C81.4266 50.1172 81.2089 49.9921 80.9706 49.9921H70.7619C70.2458 49.9921 69.9268 50.5485 70.1877 50.9909L70.2177 51.0432L80.6909 68.7196L80.7022 68.7364C80.8223 68.9362 81.04 69.0575 81.2727 69.0575H88.5576C89.2576 69.0575 89.6911 69.8174 89.3308 70.4148L79.3604 86.9729L79.3285 87.0271C79.0639 87.4695 79.3848 88.0278 79.9009 88.0278H90.1058C90.3385 88.0278 90.5543 87.9064 90.6744 87.7085L90.6875 87.688L97.0304 77.1658L97.0417 77.1452C97.1655 76.938 97.1674 76.6822 97.0473 76.4731L97.0342 76.4507L93.4536 70.413C93.0989 69.8155 93.5324 69.0594 94.2305 69.0594H101.53C101.765 69.0594 101.983 68.9362 102.103 68.7364L102.11 68.7234L112.762 51.0432L112.792 50.9928C113.057 50.5503 112.737 49.9902 112.22 49.9902H102.007L102.011 49.9921ZM91.388 68.3652L91.4089 68.3332L91.4269 68.3649L91.388 68.3652Z" fill="white"/>
</g>
<defs>
<clipPath id="clip0_94_15783">
<rect width="160" height="160" fill="white"/>
</clipPath>
</defs>
</svg>
