<svg xmlns="http://www.w3.org/2000/svg" width="141" height="41" viewBox="0 0 141 41" fill="none">
  <path d="M59.3167 19.956H59.2899L59.3047 19.9332L59.3167 19.956Z" fill="#121212"/>
  <path d="M59.3167 19.956H59.2899L59.3047 19.9332L59.3167 19.956Z" fill="#121212"/>
  <path d="M66.8024 6.89552C66.6379 6.89552 66.4866 6.98045 66.4003 7.12113L59.8576 18.0407C59.6094 18.4561 59.0069 18.4535 58.7614 18.0368L52.3367 7.14103L52.3301 7.12909C52.2452 6.98443 52.0912 6.89552 51.9227 6.89552H44.7031C44.3381 6.89552 44.1125 7.291 44.297 7.60553L44.3182 7.64269L51.7249 20.2079L51.7329 20.2199C51.8178 20.3619 51.9718 20.4482 52.1363 20.4482H57.2883C57.7833 20.4482 58.0898 20.9883 57.835 21.413L50.784 33.1833L50.7614 33.2218C50.5743 33.5363 50.8013 33.9331 51.1662 33.9331H58.3831C58.5477 33.9331 58.7003 33.8468 58.7853 33.7062L58.7945 33.6916L63.2802 26.2119L63.2882 26.1973C63.3758 26.05 63.3771 25.8681 63.2922 25.7195L63.2829 25.7036L60.7507 21.4116C60.4999 20.987 60.8065 20.4495 61.3002 20.4495H66.4627C66.6286 20.4495 66.7825 20.3619 66.8675 20.2199L66.8728 20.2106L74.4056 7.64269L74.4268 7.60686C74.6139 7.29233 74.3883 6.89419 74.022 6.89419H66.7998L66.8024 6.89552ZM59.2899 19.956L59.3047 19.9332L59.3174 19.9558L59.2899 19.956Z" fill="#121212"/>
  <path d="M19.6789 33.8734L7.40697 7.40913C7.26232 7.09725 7.49058 6.74025 7.83431 6.74025H15.6272C15.8157 6.74025 15.9855 6.85306 16.0599 7.02559L24.4194 26.5092C24.5827 26.8887 25.1215 26.89 25.2847 26.5092L33.6801 7.02426C33.7544 6.85173 33.9243 6.74025 34.1128 6.74025H41.327C41.6681 6.74025 41.8964 7.09194 41.757 7.40382L29.9124 33.8681C29.8368 34.038 29.6682 34.1468 29.4824 34.1468H20.1063C19.9231 34.1468 19.7559 34.0406 19.6789 33.8734Z" fill="#121212"/>
  <path d="M77.024 7.21136C77.024 6.95125 77.235 6.74023 77.4951 6.74023H94.8633C96.8274 6.74023 98.4425 6.93665 99.7073 7.32948C100.972 7.72231 101.973 8.22529 102.709 8.83842C103.446 9.45156 103.955 10.1443 104.238 10.9167C104.521 11.6891 104.661 12.4562 104.661 13.2166V13.6214C104.661 14.48 104.496 15.2352 104.164 15.8855C103.832 16.5358 103.414 17.0812 102.911 17.5232C102.407 17.9651 101.861 18.3088 101.272 18.553L101.255 18.561C100.851 18.7282 100.861 19.3055 101.275 19.4422C101.488 19.5138 101.702 19.5908 101.917 19.6771C102.691 19.985 103.378 20.4083 103.979 20.9485C104.581 21.4899 105.072 22.1588 105.452 22.9577C105.833 23.7567 106.023 24.7082 106.023 25.8137V26.2198C106.023 27.1528 105.857 28.0937 105.525 29.04C105.194 29.9862 104.616 30.8342 103.795 31.5841C102.972 32.3339 101.848 32.9484 100.424 33.4275C98.9999 33.9065 97.1818 34.1468 94.9721 34.1468H77.4938C77.2337 34.1468 77.0227 33.9357 77.0227 33.6756V7.21136H77.024ZM84.6125 12.8477V16.8782C84.6125 17.1383 84.8235 17.3493 85.0837 17.3493H93.7591C94.9137 17.3493 95.6994 17.1064 96.1161 16.6207C96.5328 16.135 96.7425 15.567 96.7425 14.9193V14.845C96.7425 14.1722 96.5275 13.5922 96.0975 13.1065C95.6675 12.6207 94.8872 12.3765 93.7578 12.3765H85.0823C84.8222 12.3765 84.6112 12.5876 84.6112 12.8477H84.6125ZM84.6125 23.1621V27.6345C84.6125 27.8947 84.8235 28.1057 85.0837 28.1057H94.3484C95.0119 28.1057 95.564 28.026 96.0059 27.8668C96.4479 27.7075 96.7982 27.4978 97.0557 27.2404C97.3131 26.9829 97.4976 26.6883 97.6078 26.3565C97.7179 26.0247 97.7737 25.6876 97.7737 25.3439V25.1966C97.7737 24.8529 97.7179 24.5277 97.6078 24.2198C97.4976 23.9133 97.3131 23.6492 97.0557 23.4275C96.7982 23.2059 96.4479 23.0281 96.0059 22.894C95.564 22.76 95.0119 22.691 94.3484 22.691H85.0837C84.8235 22.691 84.6125 22.902 84.6125 23.1621Z" fill="#121212"/>
  <path d="M133.637 7.21136V12.3102C133.637 12.5703 133.426 12.7813 133.166 12.7813H116.5C116.239 12.7813 116.028 12.9923 116.028 13.2525V16.6937C116.028 16.9538 116.239 17.1648 116.5 17.1648H131.981C132.241 17.1648 132.452 17.3758 132.452 17.636V22.8821C132.452 23.1422 132.241 23.3532 131.981 23.3532H116.5C116.239 23.3532 116.028 23.5642 116.028 23.8244V27.6345C116.028 27.8947 116.239 28.1057 116.5 28.1057H133.164C133.424 28.1057 133.635 28.3167 133.635 28.5768V33.6756C133.635 33.9357 133.424 34.1468 133.164 34.1468H109.023C108.762 34.1468 108.551 33.9357 108.551 33.6756V7.21136C108.551 6.95125 108.762 6.74023 109.023 6.74023H133.166C133.426 6.74023 133.637 6.95125 133.637 7.21136Z" fill="#121212"/>
</svg>
