<svg xmlns="http://www.w3.org/2000/svg" width="41" height="28" viewBox="0 0 41 28" fill="none">
  <rect x="0.695531" y="0.695531" width="38.6089" height="26.435" rx="7.30447" fill="white" stroke="#B9C6CE" stroke-width="1.39106"/>
  <path fill-rule="evenodd" clip-rule="evenodd" d="M12.6468 18.3848H10.2236L8.40643 11.3519C8.32018 11.0284 8.13705 10.7424 7.86768 10.6076C7.19541 10.2688 6.45462 9.99923 5.64648 9.86326V9.59249H9.55011C10.0889 9.59249 10.4929 9.99923 10.5603 10.4716L11.5031 15.5447L13.9251 9.59249H16.281L12.6468 18.3848ZM17.6287 18.3848H15.3401L17.2246 9.59249H19.5131L17.6287 18.3848ZM22.4723 12.0291C22.5396 11.5556 22.9437 11.2848 23.4151 11.2848C24.1559 11.2168 24.9629 11.3528 25.6363 11.6904L26.0404 9.79736C25.3669 9.52659 24.6261 9.39062 23.9539 9.39062C21.7327 9.39062 20.1164 10.6085 20.1164 12.2987C20.1164 13.5846 21.2613 14.2597 22.0694 14.6665C22.9437 15.072 23.2804 15.3428 23.2131 15.7484C23.2131 16.3567 22.5396 16.6275 21.8674 16.6275C21.0592 16.6275 20.2511 16.4247 19.5115 16.0859L19.1074 17.9801C19.9156 18.3177 20.7899 18.4537 21.598 18.4537C24.0886 18.5205 25.6363 17.3038 25.6363 15.4776C25.6363 13.1778 22.4723 13.043 22.4723 12.0291ZM33.6478 18.3848L31.8307 9.59249H29.8788C29.4748 9.59249 29.0707 9.86326 28.936 10.2688L25.5711 18.3848H27.927L28.3973 17.1001H31.2919L31.5613 18.3848H33.6478ZM30.2136 11.9605L30.8859 15.2742H29.0014L30.2136 11.9605Z" fill="#172B85"/>
</svg>
